<svg width="1920" height="1595" viewBox="0 0 1920 1595" fill="none" xmlns="http://www.w3.org/2000/svg">
<g opacity="0.1">
<path d="M1507.49 1579.41C1404.36 1579.41 1306.2 1516.35 1268.92 1414.95C1221.7 1285.11 1288.8 1141.67 1420.51 1093.45C1483.88 1069.95 1553.47 1073.66 1614.35 1102.1C1675.24 1130.54 1722.46 1180.01 1744.82 1243.07C1792.04 1372.91 1724.94 1516.35 1593.23 1564.57C1565.89 1574.46 1536.07 1579.41 1507.49 1579.41ZM1507.49 1090.98C1480.16 1090.98 1451.58 1095.92 1425.48 1105.81C1299.98 1150.33 1235.37 1287.59 1281.34 1411.24C1327.32 1534.89 1465.24 1597.96 1590.75 1553.44C1651.63 1531.18 1700.09 1487.9 1726.19 1429.79C1753.52 1371.67 1756.01 1307.37 1733.64 1248.02C1711.28 1188.66 1667.78 1140.44 1609.38 1113.23C1577.08 1098.39 1542.28 1090.98 1507.49 1090.98Z" fill="url(#paint0_linear_485:1151)"/>
<path d="M1338.5 1120.65C1302.47 1120.65 1265.19 1113.23 1231.64 1097.16C1170.75 1068.72 1123.54 1019.26 1101.17 956.194C1077.56 893.131 1081.29 825.121 1109.87 764.53C1138.45 703.94 1189.39 658.188 1252.76 634.694C1316.14 612.436 1385.72 614.909 1446.61 643.349C1507.49 671.79 1554.71 721.252 1577.08 784.315C1600.69 847.379 1596.96 915.388 1568.38 975.979C1539.8 1036.57 1488.85 1082.32 1425.48 1105.82C1396.9 1115.71 1367.08 1120.65 1338.5 1120.65ZM1338.5 632.221C1311.17 632.221 1282.59 637.167 1256.49 647.059C1195.61 669.317 1147.15 712.596 1121.05 770.713C1092.47 827.594 1089.99 891.894 1112.35 951.248C1134.72 1010.6 1178.21 1058.83 1236.61 1086.03C1295.01 1113.24 1360.87 1115.71 1420.51 1093.45C1481.4 1071.19 1529.86 1027.91 1555.95 969.796C1582.05 911.679 1585.78 847.379 1563.41 788.025C1541.04 728.671 1497.55 680.446 1439.15 653.242C1408.09 639.64 1373.29 632.221 1338.5 632.221Z" fill="url(#paint1_linear_485:1151)"/>
<path d="M1423 1105.8C1283.83 1105.8 1169.52 993.274 1169.52 856.018C1169.52 718.762 1283.83 605 1423 605C1562.17 605 1676.49 717.525 1676.49 854.781C1676.49 992.037 1562.17 1105.8 1423 1105.8ZM1423 617.365C1290.05 617.365 1181.94 723.708 1181.94 856.018C1181.94 988.328 1290.05 1093.43 1423 1093.43C1555.96 1093.43 1664.06 987.091 1664.06 854.781C1664.06 722.471 1555.96 617.365 1423 617.365Z" fill="url(#paint2_linear_485:1151)"/>
<path d="M1423 1594.23C1283.83 1594.23 1169.52 1481.71 1169.52 1344.45C1169.52 1207.2 1283.83 1093.43 1423 1093.43C1562.17 1093.43 1676.49 1205.96 1676.49 1343.21C1676.49 1480.47 1562.17 1594.23 1423 1594.23ZM1423 1105.8C1290.05 1105.8 1181.94 1212.14 1181.94 1344.45C1181.94 1476.76 1290.05 1581.87 1423 1581.87C1555.96 1581.87 1664.06 1475.52 1664.06 1343.21C1664.06 1210.9 1555.96 1105.8 1423 1105.8Z" fill="url(#paint3_linear_485:1151)"/>
<path d="M1338.51 1579.38C1308.69 1579.38 1280.11 1574.44 1251.53 1564.54C1119.81 1517.55 1052.71 1372.88 1099.93 1243.04C1123.54 1179.98 1169.52 1130.52 1230.4 1102.08C1291.29 1073.64 1360.87 1071.16 1424.24 1093.42C1487.62 1115.68 1538.56 1162.67 1567.14 1223.26C1595.72 1283.85 1598.21 1351.86 1575.84 1414.92C1552.23 1477.99 1506.25 1527.45 1445.37 1555.89C1411.82 1571.96 1374.54 1579.38 1338.51 1579.38ZM1112.36 1247.99C1066.38 1371.64 1131 1507.66 1256.5 1553.41C1317.38 1575.67 1382 1571.96 1440.4 1546C1498.8 1518.79 1543.53 1471.8 1564.66 1411.21C1587.02 1351.86 1583.29 1286.32 1557.2 1229.44C1531.11 1172.56 1481.4 1128.04 1421.76 1105.79C1360.87 1083.53 1295.02 1086 1236.62 1113.21C1178.21 1140.41 1133.48 1187.4 1112.36 1247.99Z" fill="url(#paint4_linear_485:1151)"/>
<path d="M1507.5 1120.63C1477.67 1120.63 1449.1 1115.69 1420.52 1105.8C1357.14 1083.54 1306.2 1036.55 1277.62 975.959C1249.04 915.368 1246.56 847.358 1268.92 784.295C1317.38 654.458 1462.76 587.685 1594.48 634.673C1657.85 656.931 1708.79 703.92 1737.37 764.51C1765.95 825.101 1768.44 893.11 1746.07 956.174C1722.46 1019.24 1676.49 1068.7 1615.6 1097.14C1580.81 1113.21 1544.77 1120.63 1507.5 1120.63ZM1507.5 632.2C1409.33 632.2 1316.14 692.791 1280.1 789.241C1257.74 848.595 1261.47 914.132 1287.56 971.012C1314.9 1029.13 1363.36 1072.41 1423 1094.67C1483.89 1116.92 1548.5 1113.21 1606.9 1087.25C1665.3 1060.04 1710.04 1013.05 1731.16 952.464C1752.28 891.874 1749.8 827.574 1723.7 770.693C1696.37 712.575 1647.91 669.296 1588.26 647.039C1563.41 637.146 1534.83 632.2 1507.5 632.2Z" fill="url(#paint5_linear_485:1151)"/>
<path d="M1582.05 1162.68C1524.89 1162.68 1466.49 1142.9 1419.27 1104.56C1312.41 1015.53 1298.74 857.257 1388.21 752.151C1477.67 645.808 1637.97 632.206 1744.83 721.237C1851.69 810.268 1865.36 968.545 1775.89 1073.65C1726.19 1131.77 1654.12 1162.68 1582.05 1162.68ZM1582.05 674.249C1513.71 674.249 1445.37 702.689 1396.91 759.57C1311.17 859.73 1324.84 1010.59 1426.73 1094.67C1528.62 1178.76 1681.46 1166.39 1765.95 1065C1851.69 964.836 1838.02 813.978 1736.13 729.893C1691.4 692.797 1636.72 674.249 1582.05 674.249Z" fill="url(#paint6_linear_485:1151)"/>
<path d="M1263.95 1537.35C1204.3 1537.35 1147.15 1516.33 1101.17 1479.23C1048.98 1435.95 1017.92 1375.36 1011.7 1309.83C1005.49 1243.05 1026.62 1178.75 1070.11 1126.82C1113.6 1074.88 1174.48 1042.73 1241.58 1037.79C1308.68 1031.61 1374.54 1052.63 1426.73 1095.91C1478.91 1139.18 1509.98 1199.78 1516.19 1265.31C1522.4 1330.85 1501.28 1396.39 1457.79 1447.08C1414.3 1497.78 1353.41 1529.93 1286.31 1536.11C1278.86 1537.35 1271.4 1537.35 1263.95 1537.35ZM1263.95 1048.92C1195.61 1048.92 1127.26 1077.36 1078.8 1134.24C1037.8 1182.46 1017.92 1244.29 1022.89 1308.59C1027.86 1372.89 1058.92 1429.77 1108.63 1470.58C1158.33 1511.38 1220.46 1531.17 1285.07 1524.99C1349.69 1520.04 1406.84 1489.13 1449.09 1440.9C1490.1 1392.68 1509.98 1330.85 1505.01 1266.55C1498.79 1203.49 1468.97 1145.37 1419.27 1104.56C1374.54 1067.47 1318.62 1048.92 1263.95 1048.92Z" fill="url(#paint7_linear_485:1151)"/>
<path d="M1209.28 1471.83C1186.91 1471.83 1164.55 1469.36 1143.42 1463.18C1077.57 1445.87 1022.89 1403.82 989.344 1346.94C955.794 1288.82 947.096 1222.05 964.492 1156.51C981.888 1092.21 1024.14 1037.81 1082.54 1004.42C1140.94 971.033 1209.28 962.378 1275.14 979.689C1340.99 997.001 1395.67 1037.81 1429.22 1095.92C1462.77 1154.04 1471.46 1220.81 1454.07 1286.35C1436.67 1350.65 1394.42 1405.06 1336.02 1438.45C1296.26 1460.7 1252.77 1471.83 1209.28 1471.83ZM1208.04 983.399C1165.79 983.399 1124.78 994.528 1087.51 1015.55C1031.59 1047.7 991.829 1098.4 975.676 1160.22C959.522 1222.05 968.22 1286.35 1000.53 1340.76C1032.83 1395.17 1085.02 1434.74 1147.15 1452.05C1209.28 1468.12 1273.89 1459.47 1329.81 1428.55C1445.37 1363.02 1485.13 1217.11 1418.03 1103.34C1385.73 1047.7 1333.54 1009.37 1271.41 992.055C1250.28 985.872 1229.16 983.399 1208.04 983.399Z" fill="url(#paint8_linear_485:1151)"/>
<path d="M1637.97 1228.2C1615.6 1228.2 1593.24 1225.72 1572.11 1219.54C1506.26 1202.23 1451.58 1160.19 1418.03 1103.31C1384.48 1045.19 1375.79 978.415 1393.18 912.878C1410.58 848.578 1452.83 794.17 1511.23 760.783C1569.63 727.397 1637.97 718.741 1703.83 736.053C1769.68 753.364 1824.36 794.17 1857.9 852.287C1891.45 910.405 1900.15 977.178 1882.76 1042.71C1865.36 1107.01 1823.11 1161.42 1764.71 1194.81C1724.95 1217.07 1681.46 1228.2 1637.97 1228.2ZM1516.2 770.676C1460.28 802.826 1420.52 853.524 1404.36 915.351C1388.21 977.178 1395.67 1041.48 1427.97 1095.89C1460.28 1151.53 1512.47 1189.86 1574.6 1207.17C1636.73 1223.25 1701.34 1214.59 1757.26 1183.68C1813.17 1151.53 1852.93 1100.83 1869.09 1039.01C1885.24 977.178 1877.79 912.878 1845.48 858.47C1813.17 802.826 1760.98 764.493 1698.86 747.182C1637.97 731.106 1572.11 739.762 1516.2 770.676Z" fill="url(#paint9_linear_485:1151)"/>
<path d="M1666.54 1307.35C1546.01 1307.35 1439.15 1222.03 1416.79 1100.85C1391.93 964.832 1485.13 834.995 1621.81 810.264C1688.91 799.135 1756.01 813.974 1810.68 852.307C1866.6 890.639 1902.63 947.52 1915.06 1014.29C1939.91 1150.31 1846.72 1280.15 1710.03 1304.88C1695.12 1306.12 1681.46 1307.35 1666.54 1307.35ZM1666.54 818.92C1652.88 818.92 1637.96 820.157 1624.3 822.63C1493.83 844.887 1405.6 969.778 1429.21 1098.38C1451.58 1228.22 1577.08 1314.77 1708.79 1291.28C1839.26 1269.02 1927.49 1144.13 1903.88 1015.53C1892.69 952.466 1857.9 898.059 1804.47 862.199C1763.47 833.759 1716.25 818.92 1666.54 818.92Z" fill="url(#paint10_linear_485:1151)"/>
<path d="M1179.46 1392.69C1058.93 1392.69 952.065 1307.37 929.698 1186.19C918.515 1120.65 933.426 1053.88 971.946 999.473C1010.47 945.065 1068.87 907.969 1135.97 896.84C1273.89 873.346 1405.6 963.614 1429.21 1099.63C1454.07 1235.65 1360.87 1365.49 1224.19 1390.22C1209.28 1391.46 1194.37 1392.69 1179.46 1392.69ZM1179.46 904.26C1165.79 904.26 1152.12 905.496 1137.21 907.969C1073.84 919.098 1017.92 953.721 981.886 1005.66C944.609 1057.59 930.941 1120.65 942.124 1183.72C953.307 1246.78 988.099 1301.19 1041.53 1337.05C1094.96 1372.91 1158.33 1387.75 1221.7 1376.62C1352.17 1354.36 1440.4 1229.47 1416.79 1100.87C1396.91 985.871 1293.77 904.26 1179.46 904.26Z" fill="url(#paint11_linear_485:1151)"/>
<path d="M1179.45 1307.35C1164.54 1307.35 1149.63 1306.12 1134.72 1303.64C998.038 1280.15 906.088 1149.08 929.697 1014.29C940.88 948.757 978.157 890.639 1034.07 852.307C1089.99 813.974 1157.09 799.135 1222.94 810.264C1360.87 834.995 1452.82 964.832 1429.21 1100.85C1406.85 1222.03 1299.98 1307.35 1179.45 1307.35ZM1179.45 818.92C1130.99 818.92 1082.53 833.759 1041.53 862.199C989.34 899.295 953.306 953.703 942.123 1015.53C918.514 1145.37 1006.74 1269.02 1137.21 1291.28C1267.68 1313.54 1393.18 1226.98 1416.79 1098.38C1440.4 968.542 1352.17 844.887 1221.7 822.63C1206.79 820.157 1193.12 818.92 1179.45 818.92Z" fill="url(#paint12_linear_485:1151)"/>
<path d="M1666.55 1392.66C1651.64 1392.66 1636.73 1391.42 1621.81 1388.95C1485.13 1364.21 1393.18 1234.38 1416.79 1098.36C1441.64 962.339 1573.35 870.835 1710.04 895.566C1847.96 919.06 1939.91 1050.13 1916.3 1184.92C1905.12 1250.45 1867.84 1308.57 1811.93 1346.9C1768.44 1376.58 1718.74 1392.66 1666.55 1392.66ZM1666.55 904.222C1552.23 904.222 1450.34 985.833 1429.21 1100.83C1405.61 1230.67 1493.83 1354.32 1624.3 1376.58C1754.77 1398.84 1880.27 1312.28 1903.88 1183.68C1927.49 1053.84 1839.27 930.189 1708.79 907.931C1693.88 905.458 1680.22 904.222 1666.55 904.222Z" fill="url(#paint13_linear_485:1151)"/>
<path d="M1636.72 1471.83C1593.23 1471.83 1549.74 1460.7 1509.98 1438.45C1451.58 1405.06 1409.33 1350.65 1391.94 1286.35C1374.54 1222.05 1383.24 1154.04 1416.79 1095.92C1450.34 1037.81 1505.01 997.001 1570.87 979.689C1636.72 962.378 1705.07 971.033 1763.47 1004.42C1821.87 1037.81 1864.12 1092.21 1881.51 1156.51C1898.91 1220.81 1890.21 1288.82 1856.66 1346.94C1823.11 1405.06 1768.44 1445.87 1702.58 1463.18C1681.46 1469.36 1659.09 1471.83 1636.72 1471.83ZM1637.97 983.399C1616.84 983.399 1595.72 985.872 1574.6 992.055C1512.47 1008.13 1460.28 1047.7 1427.97 1103.34C1395.66 1158.99 1386.97 1222.05 1404.36 1283.88C1420.52 1345.71 1461.52 1396.4 1516.19 1428.55C1572.11 1460.7 1636.72 1469.36 1698.85 1452.05C1760.98 1435.97 1813.17 1396.4 1845.48 1340.76C1877.78 1285.11 1886.48 1222.05 1869.09 1160.22C1852.93 1098.4 1811.93 1047.7 1757.25 1015.55C1719.98 994.528 1678.97 983.399 1637.97 983.399Z" fill="url(#paint14_linear_485:1151)"/>
<path d="M1208.04 1228.23C1164.55 1228.23 1121.06 1217.1 1081.29 1194.84C1022.89 1161.46 980.645 1107.05 963.249 1042.75C945.852 978.45 954.55 910.441 988.1 852.323C1057.68 732.379 1213.01 691.573 1334.78 760.819C1455.31 830.065 1497.56 983.396 1427.97 1103.34C1394.42 1161.46 1339.75 1202.26 1273.89 1219.58C1252.77 1224.52 1230.4 1228.23 1208.04 1228.23ZM1209.28 739.798C1188.15 739.798 1167.03 742.271 1145.91 748.454C1083.78 764.529 1031.59 804.098 999.283 859.742C966.976 915.387 958.278 978.45 975.674 1040.28C993.07 1102.1 1032.83 1152.8 1087.51 1184.95C1143.42 1217.1 1208.04 1225.76 1270.16 1208.45C1332.29 1192.37 1384.48 1152.8 1416.79 1097.16C1482.65 983.396 1444.13 837.485 1328.57 771.948C1292.53 749.69 1251.53 739.798 1209.28 739.798Z" fill="url(#paint15_linear_485:1151)"/>
<path d="M1263.95 1162.69C1191.88 1162.69 1119.81 1131.78 1070.11 1073.66C1026.62 1022.96 1005.49 957.424 1011.7 890.651C1017.92 823.878 1048.98 763.287 1101.17 721.245C1153.36 677.966 1219.21 658.181 1286.31 663.127C1353.41 669.31 1414.3 700.224 1457.79 752.158C1501.28 802.857 1522.4 868.393 1516.19 935.166C1509.98 1001.94 1478.91 1062.53 1426.73 1104.57C1379.51 1144.14 1322.35 1162.69 1263.95 1162.69ZM1263.95 674.256C1208.03 674.256 1153.36 694.041 1109.87 729.901C1060.17 770.706 1030.34 828.824 1024.13 891.887C1017.92 954.951 1037.8 1016.78 1080.05 1066.24C1165.78 1166.4 1317.38 1180 1419.27 1095.92C1468.97 1055.11 1498.79 996.993 1505.01 933.93C1511.22 870.866 1491.34 809.039 1449.09 759.578C1408.09 711.353 1349.69 680.439 1285.07 675.493C1277.62 674.256 1270.16 674.256 1263.95 674.256Z" fill="url(#paint16_linear_485:1151)"/>
<path d="M1582.05 1537.36C1509.98 1537.36 1437.91 1506.45 1388.21 1448.33C1298.74 1341.99 1312.41 1184.95 1419.27 1095.92C1526.13 1006.89 1686.43 1020.49 1775.89 1126.83C1865.36 1233.17 1851.69 1390.22 1744.83 1479.25C1697.61 1517.58 1639.21 1537.36 1582.05 1537.36ZM1582.05 1048.93C1527.38 1048.93 1472.7 1067.48 1426.73 1104.57C1324.84 1188.66 1311.17 1339.52 1396.91 1439.68C1482.64 1539.84 1634.24 1553.44 1736.13 1469.35C1838.02 1385.27 1851.69 1234.41 1765.95 1134.25C1718.73 1077.37 1650.39 1048.93 1582.05 1048.93Z" fill="url(#paint17_linear_485:1151)"/>
<path d="M1507.49 1579.41C1404.36 1579.41 1306.2 1516.35 1268.92 1414.95C1221.7 1285.11 1288.8 1141.67 1420.51 1093.45C1483.88 1069.95 1553.47 1073.66 1614.35 1102.1C1675.24 1130.54 1722.46 1180.01 1744.82 1243.07C1792.04 1372.91 1724.94 1516.35 1593.23 1564.57C1565.89 1574.46 1536.07 1579.41 1507.49 1579.41ZM1507.49 1090.98C1480.16 1090.98 1451.58 1095.92 1425.48 1105.81C1299.98 1150.33 1235.37 1287.59 1281.34 1411.24C1327.32 1534.89 1465.24 1597.96 1590.75 1553.44C1651.63 1531.18 1700.09 1487.9 1726.19 1429.79C1753.52 1371.67 1756.01 1307.37 1733.64 1248.02C1711.28 1188.66 1667.78 1140.44 1609.38 1113.23C1577.08 1098.39 1542.28 1090.98 1507.49 1090.98Z" fill="url(#paint18_linear_485:1151)"/>
<path d="M1338.5 1120.65C1302.47 1120.65 1265.19 1113.23 1231.64 1097.16C1170.75 1068.72 1123.54 1019.26 1101.17 956.194C1077.56 893.131 1081.29 825.121 1109.87 764.53C1138.45 703.94 1189.39 658.188 1252.76 634.694C1316.14 612.436 1385.72 614.909 1446.61 643.349C1507.49 671.79 1554.71 721.252 1577.08 784.315C1600.69 847.379 1596.96 915.388 1568.38 975.979C1539.8 1036.57 1488.85 1082.32 1425.48 1105.82C1396.9 1115.71 1367.08 1120.65 1338.5 1120.65ZM1338.5 632.221C1311.17 632.221 1282.59 637.167 1256.49 647.059C1195.61 669.317 1147.15 712.596 1121.05 770.713C1092.47 827.594 1089.99 891.894 1112.35 951.248C1134.72 1010.6 1178.21 1058.83 1236.61 1086.03C1295.01 1113.24 1360.87 1115.71 1420.51 1093.45C1481.4 1071.19 1529.86 1027.91 1555.95 969.796C1582.05 911.679 1585.78 847.379 1563.41 788.025C1541.04 728.671 1497.55 680.446 1439.15 653.242C1408.09 639.64 1373.29 632.221 1338.5 632.221Z" fill="url(#paint19_linear_485:1151)"/>
<path d="M1423 1105.8C1283.83 1105.8 1169.52 993.274 1169.52 856.018C1169.52 718.762 1283.83 605 1423 605C1562.17 605 1676.49 717.525 1676.49 854.781C1676.49 992.037 1562.17 1105.8 1423 1105.8ZM1423 617.365C1290.05 617.365 1181.94 723.708 1181.94 856.018C1181.94 988.328 1290.05 1093.43 1423 1093.43C1555.96 1093.43 1664.06 987.091 1664.06 854.781C1664.06 722.471 1555.96 617.365 1423 617.365Z" fill="url(#paint20_linear_485:1151)"/>
<path d="M1423 1594.23C1283.83 1594.23 1169.52 1481.71 1169.52 1344.45C1169.52 1207.2 1283.83 1093.43 1423 1093.43C1562.17 1093.43 1676.49 1205.96 1676.49 1343.21C1676.49 1480.47 1562.17 1594.23 1423 1594.23ZM1423 1105.8C1290.05 1105.8 1181.94 1212.14 1181.94 1344.45C1181.94 1476.76 1290.05 1581.87 1423 1581.87C1555.96 1581.87 1664.06 1475.52 1664.06 1343.21C1664.06 1210.9 1555.96 1105.8 1423 1105.8Z" fill="url(#paint21_linear_485:1151)"/>
</g>
<g opacity="0.04">
<path d="M581.493 974.409C478.359 974.409 380.195 911.345 342.918 809.949C295.7 680.112 362.799 536.673 494.512 488.448C557.884 464.954 627.468 468.664 688.354 497.104C749.24 525.544 796.458 575.006 818.825 638.07C866.043 767.906 798.943 911.345 667.23 959.57C639.894 969.463 610.072 974.409 581.493 974.409ZM581.493 485.975C554.156 485.975 525.577 490.921 499.482 500.814C373.982 545.329 309.368 682.585 355.344 806.239C401.319 929.893 539.245 992.957 664.745 948.441C725.631 926.184 774.092 882.905 800.186 824.787C827.523 766.67 830.008 702.37 807.641 643.016C785.275 583.662 741.785 535.437 683.384 508.233C651.077 493.394 616.285 485.975 581.493 485.975Z" fill="url(#paint22_linear_485:1151)"/>
<path d="M412.503 515.654C376.468 515.654 339.191 508.235 305.641 492.16C244.755 463.719 197.537 414.258 175.171 351.194C151.562 288.131 155.289 220.121 183.869 159.53C212.448 98.9399 263.394 53.1879 326.765 29.6937C390.136 7.43593 459.721 9.90902 520.607 38.3495C581.493 66.7899 628.711 116.252 651.077 179.315C674.686 242.379 670.959 310.388 642.379 370.979C613.8 431.569 562.854 477.321 499.483 500.816C470.904 510.708 441.082 515.654 412.503 515.654ZM412.503 27.2206C385.166 27.2206 356.587 32.1667 330.493 42.0591C269.606 64.3168 221.146 107.596 195.052 165.713C166.473 222.594 163.987 286.894 186.354 346.248C208.72 405.602 252.21 453.827 310.611 481.031C369.013 508.235 434.869 510.708 494.513 488.45C555.399 466.193 603.859 422.914 629.954 364.796C656.048 306.679 659.775 242.379 637.409 183.025C615.043 123.671 571.552 75.4457 513.151 48.2418C482.087 34.6398 447.295 27.2206 412.503 27.2206Z" fill="url(#paint23_linear_485:1151)"/>
<path d="M497.001 500.799C357.833 500.799 243.516 388.274 243.516 251.018C243.516 113.762 357.833 0 497.001 0C636.17 0 750.487 112.525 750.487 249.781C750.487 387.037 636.17 500.799 497.001 500.799ZM497.001 12.3654C364.046 12.3654 255.942 118.708 255.942 251.018C255.942 383.328 364.046 488.434 497.001 488.434C629.957 488.434 738.061 382.091 738.061 249.781C738.061 117.471 629.957 12.3654 497.001 12.3654Z" fill="url(#paint24_linear_485:1151)"/>
<path d="M497.001 989.233C357.833 989.233 243.516 876.707 243.516 739.451C243.516 602.195 357.833 488.434 497.001 488.434C636.17 488.434 750.487 600.959 750.487 738.215C750.487 875.471 636.17 989.233 497.001 989.233ZM497.001 500.799C364.046 500.799 255.942 607.142 255.942 739.451C255.942 871.761 364.046 976.867 497.001 976.867C629.957 976.867 738.061 870.525 738.061 738.215C738.061 605.905 629.957 500.799 497.001 500.799Z" fill="url(#paint25_linear_485:1151)"/>
<path d="M412.507 974.382C382.685 974.382 354.106 969.436 325.527 959.543C193.814 912.555 126.715 767.88 173.933 638.043C197.542 574.979 243.517 525.518 304.403 497.077C365.289 468.637 434.874 466.164 498.245 488.421C561.616 510.679 612.562 557.668 641.141 618.258C669.721 678.849 672.206 746.858 649.839 809.922C626.23 872.986 580.255 922.447 519.369 950.888C485.819 966.963 448.542 974.382 412.507 974.382ZM186.358 642.989C140.383 766.643 204.997 902.662 330.497 948.414C391.383 970.672 455.997 966.963 514.399 940.995C572.8 913.791 617.532 866.803 638.656 806.212C661.023 746.858 657.295 681.322 631.201 624.441C605.107 567.56 555.404 523.044 495.76 500.787C434.874 478.529 369.017 481.002 310.616 508.206C252.215 535.41 207.482 582.398 186.358 642.989Z" fill="url(#paint26_linear_485:1151)"/>
<path d="M581.496 515.634C551.675 515.634 523.095 510.688 494.516 500.795C431.145 478.538 380.199 431.549 351.62 370.959C323.041 310.368 320.555 242.358 342.922 179.295C391.382 49.4579 536.764 -17.3153 668.477 29.6733C731.848 51.931 782.794 98.9196 811.373 159.51C839.952 220.101 842.438 288.11 820.071 351.174C796.462 414.238 750.487 463.699 689.601 492.14C654.809 508.215 618.774 515.634 581.496 515.634ZM581.496 27.2002C483.333 27.2002 390.14 87.7907 354.105 184.241C331.739 243.595 335.466 309.132 361.56 366.012C388.897 424.13 437.358 467.409 497.001 489.667C557.888 511.924 622.502 508.215 680.903 482.247C739.304 455.043 784.036 408.055 805.16 347.464C826.284 286.874 823.799 222.574 797.705 165.693C770.368 107.575 721.908 64.2964 662.264 42.0387C637.412 32.1463 608.833 27.2002 581.496 27.2002Z" fill="url(#paint27_linear_485:1151)"/>
<path d="M656.05 557.682C598.891 557.682 540.49 537.898 493.272 499.565C386.411 410.534 372.742 252.257 462.208 147.151C551.673 40.8082 711.966 27.2062 818.827 116.237C925.689 205.268 939.357 363.545 849.891 468.651C800.188 526.769 728.119 557.682 656.05 557.682ZM656.05 69.2486C587.708 69.2486 519.366 97.6891 470.906 154.57C385.168 254.73 398.836 405.588 500.728 489.672C602.619 573.757 755.456 561.392 839.951 459.996C925.689 359.836 912.02 208.978 810.129 124.893C765.396 87.7967 710.723 69.2486 656.05 69.2486Z" fill="url(#paint28_linear_485:1151)"/>
<path d="M337.948 932.351C278.304 932.351 221.146 911.33 175.17 874.234C122.982 830.955 91.9176 770.364 85.7047 704.828C79.4918 638.054 100.616 573.754 144.106 521.82C187.596 469.885 248.482 437.735 315.581 432.789C382.68 426.606 448.537 447.627 500.725 490.906C552.913 534.185 583.978 594.775 590.191 660.312C596.404 725.849 575.28 791.385 531.79 842.084C488.299 892.782 427.413 924.932 360.314 931.115C352.859 932.351 345.403 932.351 337.948 932.351ZM337.948 443.917C269.606 443.917 201.264 472.358 152.804 529.239C111.799 577.464 91.9176 639.291 96.8879 703.591C101.858 767.891 132.923 824.772 182.626 865.578C232.329 906.384 294.458 926.168 359.072 919.986C423.686 915.039 480.844 884.126 523.092 835.901C564.097 787.676 583.978 725.849 579.008 661.549C572.795 598.485 542.973 540.368 493.27 499.562C448.537 462.466 392.621 443.917 337.948 443.917Z" fill="url(#paint29_linear_485:1151)"/>
<path d="M283.28 866.832C260.914 866.832 238.547 864.359 217.423 858.177C151.567 840.865 96.8935 798.823 63.3439 741.942C29.7944 683.824 21.0963 617.051 38.4924 551.515C55.8885 487.214 98.1361 432.807 156.537 399.42C214.938 366.033 283.28 357.378 349.136 374.689C414.993 392.001 469.666 432.807 503.216 490.924C536.765 549.042 545.463 615.815 528.067 681.351C510.671 745.651 468.424 800.059 410.023 833.446C370.26 855.704 326.77 866.832 283.28 866.832ZM282.037 378.399C239.79 378.399 198.785 389.528 161.507 410.549C105.592 442.699 65.8291 493.397 49.6756 555.224C33.5221 617.051 42.2201 681.351 74.5271 735.759C106.834 790.167 159.022 829.736 221.151 847.048C283.28 863.123 347.894 854.467 403.81 823.553C519.369 758.017 559.132 612.105 492.033 498.343C459.726 442.699 407.538 404.366 345.409 387.055C324.285 380.872 303.161 378.399 282.037 378.399Z" fill="url(#paint30_linear_485:1151)"/>
<path d="M711.969 623.196C689.602 623.196 667.236 620.723 646.112 614.54C580.256 597.229 525.582 555.186 492.033 498.305C458.483 440.188 449.785 373.415 467.181 307.878C484.577 243.578 526.825 189.17 585.226 155.783C643.627 122.397 711.969 113.741 777.825 131.053C843.682 148.364 898.355 189.17 931.905 247.287C965.454 305.405 974.152 372.178 956.756 437.715C939.36 502.015 897.113 556.423 838.712 589.809C798.949 612.067 755.459 623.196 711.969 623.196ZM590.196 165.676C534.28 197.826 494.518 248.524 478.364 310.351C462.211 372.178 469.666 436.478 501.973 490.886C534.28 546.53 586.469 584.863 648.597 602.175C710.726 618.25 775.34 609.594 831.256 578.68C887.172 546.53 926.934 495.832 943.088 434.005C959.241 372.178 951.786 307.878 919.479 253.47C887.172 197.826 834.984 159.493 772.855 142.182C711.969 126.106 646.112 134.762 590.196 165.676Z" fill="url(#paint31_linear_485:1151)"/>
<path d="M740.544 702.354C620.014 702.354 513.153 617.032 490.786 495.851C465.935 359.832 559.128 229.995 695.811 205.264C762.91 194.135 830.009 208.974 884.683 247.307C940.599 285.639 976.633 342.52 989.059 409.293C1013.91 545.313 920.718 675.15 784.034 699.881C769.123 701.117 755.455 702.354 740.544 702.354ZM740.544 213.92C726.876 213.92 711.965 215.157 698.296 217.63C567.826 239.887 479.603 364.778 503.212 493.378C525.578 623.215 651.079 709.773 782.792 686.279C913.262 664.021 1001.48 539.13 977.876 410.53C966.693 347.466 931.901 293.059 878.47 257.199C837.465 228.759 790.247 213.92 740.544 213.92Z" fill="url(#paint32_linear_485:1151)"/>
<path d="M253.456 787.693C132.926 787.693 26.0647 702.372 3.69829 581.191C-7.4849 515.654 7.42601 448.881 45.9459 394.473C84.4657 340.065 142.867 302.969 209.966 291.84C347.892 268.346 479.605 358.614 503.214 494.633C528.065 630.653 434.872 760.489 298.189 785.22C283.278 786.457 268.367 787.693 253.456 787.693ZM253.456 299.26C239.788 299.26 226.119 300.496 211.209 302.969C147.837 314.098 91.9212 348.721 55.8865 400.656C18.6092 452.591 4.94087 515.654 16.1241 578.718C27.3072 641.781 62.0994 696.189 115.53 732.049C168.961 767.909 232.332 782.747 295.704 771.618C426.174 749.36 514.397 624.47 490.788 495.87C470.907 380.871 367.773 299.26 253.456 299.26Z" fill="url(#paint33_linear_485:1151)"/>
<path d="M253.455 702.354C238.544 702.354 223.633 701.117 208.722 698.644C72.0385 675.15 -19.9122 544.076 3.69678 409.293C14.88 343.757 52.1573 285.639 108.073 247.307C163.989 208.974 231.088 194.135 296.945 205.264C434.871 229.995 526.821 359.832 503.212 495.851C480.846 617.032 373.984 702.354 253.455 702.354ZM253.455 213.92C204.994 213.92 156.534 228.759 115.529 257.199C63.3404 294.295 27.3057 348.703 16.1225 410.53C-7.48641 540.367 80.7365 664.021 211.207 686.279C341.678 708.536 467.178 621.979 490.787 493.378C514.396 363.542 426.173 239.887 295.702 217.63C280.791 215.157 267.123 213.92 253.455 213.92Z" fill="url(#paint34_linear_485:1151)"/>
<path d="M740.547 787.655C725.636 787.655 710.725 786.419 695.814 783.946C559.131 759.215 467.18 629.378 490.789 493.359C515.64 357.339 647.354 265.835 784.037 290.566C921.963 314.06 1013.91 445.134 990.305 579.917C979.121 645.453 941.844 703.571 885.928 741.903C842.438 771.58 792.735 787.655 740.547 787.655ZM740.547 299.222C626.23 299.222 524.339 380.833 503.215 495.832C479.606 625.669 567.829 749.323 698.299 771.58C828.77 793.838 954.27 707.28 977.879 578.68C1001.49 448.843 913.265 325.189 782.794 302.931C767.883 300.458 754.215 299.222 740.547 299.222Z" fill="url(#paint35_linear_485:1151)"/>
<path d="M710.725 866.832C667.235 866.832 623.745 855.704 583.982 833.446C525.581 800.059 483.333 745.651 465.937 681.351C448.541 617.051 457.239 549.042 490.789 490.924C524.338 432.807 579.012 392.001 644.868 374.689C710.725 357.378 779.067 366.033 837.468 399.42C895.869 432.807 938.116 487.214 955.512 551.515C972.908 615.815 964.21 683.824 930.661 741.942C897.111 800.059 842.438 840.865 776.581 858.177C755.458 864.359 733.091 866.832 710.725 866.832ZM711.967 378.399C690.844 378.399 669.72 380.872 648.596 387.055C586.467 403.13 534.279 442.699 501.972 498.343C469.665 553.988 460.967 617.051 478.363 678.878C494.517 740.705 535.522 791.403 590.195 823.553C646.111 855.704 710.725 864.359 772.854 847.048C834.982 830.973 887.171 791.403 919.478 735.759C951.785 680.115 960.483 617.051 943.087 555.224C926.933 493.397 885.928 442.699 831.255 410.549C793.978 389.528 752.973 378.399 711.967 378.399Z" fill="url(#paint36_linear_485:1151)"/>
<path d="M282.036 623.232C238.546 623.232 195.056 612.103 155.293 589.845C96.8922 556.458 54.6446 502.051 37.2485 437.75C19.8525 373.45 28.5505 305.441 62.1 247.323C131.684 127.379 287.006 86.5728 408.779 155.819C529.309 225.065 571.556 378.396 501.972 498.341C468.422 556.458 413.749 597.264 347.893 614.576C326.769 619.522 304.402 623.232 282.036 623.232ZM283.279 134.798C262.155 134.798 241.031 137.271 219.907 143.454C157.778 159.529 105.59 199.098 73.2832 254.742C40.9762 310.387 32.2782 373.45 49.6743 435.277C67.0703 497.104 106.833 547.803 161.506 579.953C217.422 612.103 282.036 620.758 344.165 603.447C406.294 587.372 458.482 547.803 490.789 492.158C556.645 378.396 518.125 232.485 402.566 166.948C366.531 144.69 325.526 134.798 283.279 134.798Z" fill="url(#paint37_linear_485:1151)"/>
<path d="M337.948 557.69C265.878 557.69 193.809 526.776 144.106 468.659C100.616 417.961 79.4918 352.424 85.7047 285.651C91.9176 218.878 122.982 158.287 175.17 116.245C227.358 72.9659 293.215 53.1812 360.314 58.1274C427.413 64.3101 488.299 95.2236 531.79 147.158C575.28 197.857 596.404 263.393 590.191 330.166C583.978 396.94 552.913 457.53 500.725 499.572C453.507 539.142 396.349 557.69 337.948 557.69ZM337.948 69.2563C282.032 69.2563 227.358 89.0409 183.868 124.901C134.165 165.706 104.343 223.824 98.1305 286.887C91.9176 349.951 111.799 411.778 154.046 461.24C239.784 561.399 391.379 575.001 493.27 490.917C542.973 450.111 572.795 391.993 579.008 328.93C585.22 265.866 565.339 204.039 523.092 154.578C482.087 106.353 423.686 75.439 359.072 70.4928C351.616 69.2563 344.161 69.2563 337.948 69.2563Z" fill="url(#paint38_linear_485:1151)"/>
<path d="M656.05 932.364C583.98 932.364 511.911 901.45 462.208 843.333C372.742 736.99 386.411 579.95 493.272 490.919C600.134 401.888 760.426 415.49 849.891 521.832C939.357 628.175 925.689 785.215 818.827 874.246C771.609 912.579 713.208 932.364 656.05 932.364ZM656.05 443.93C601.376 443.93 546.703 462.478 500.728 499.574C398.836 583.659 385.168 734.517 470.906 834.677C556.643 934.837 708.238 948.439 810.129 864.354C912.02 780.269 925.689 629.411 839.951 529.251C792.733 472.371 724.391 443.93 656.05 443.93Z" fill="url(#paint39_linear_485:1151)"/>
<path d="M581.493 974.409C478.359 974.409 380.195 911.345 342.918 809.949C295.7 680.112 362.799 536.673 494.512 488.448C557.884 464.954 627.468 468.664 688.354 497.104C749.24 525.544 796.458 575.006 818.825 638.07C866.043 767.906 798.943 911.345 667.23 959.57C639.894 969.463 610.072 974.409 581.493 974.409ZM581.493 485.975C554.156 485.975 525.577 490.921 499.482 500.814C373.982 545.329 309.368 682.585 355.344 806.239C401.319 929.893 539.245 992.957 664.745 948.441C725.631 926.184 774.092 882.905 800.186 824.787C827.523 766.67 830.008 702.37 807.641 643.016C785.275 583.662 741.785 535.437 683.384 508.233C651.077 493.394 616.285 485.975 581.493 485.975Z" fill="url(#paint40_linear_485:1151)"/>
<path d="M412.503 515.654C376.468 515.654 339.191 508.235 305.641 492.16C244.755 463.719 197.537 414.258 175.171 351.194C151.562 288.131 155.289 220.121 183.869 159.53C212.448 98.9399 263.394 53.1879 326.765 29.6937C390.136 7.43593 459.721 9.90902 520.607 38.3495C581.493 66.7899 628.711 116.252 651.077 179.315C674.686 242.379 670.959 310.388 642.379 370.979C613.8 431.569 562.854 477.321 499.483 500.816C470.904 510.708 441.082 515.654 412.503 515.654ZM412.503 27.2206C385.166 27.2206 356.587 32.1667 330.493 42.0591C269.606 64.3168 221.146 107.596 195.052 165.713C166.473 222.594 163.987 286.894 186.354 346.248C208.72 405.602 252.21 453.827 310.611 481.031C369.013 508.235 434.869 510.708 494.513 488.45C555.399 466.193 603.859 422.914 629.954 364.796C656.048 306.679 659.775 242.379 637.409 183.025C615.043 123.671 571.552 75.4457 513.151 48.2418C482.087 34.6398 447.295 27.2206 412.503 27.2206Z" fill="url(#paint41_linear_485:1151)"/>
<path d="M497.001 500.799C357.833 500.799 243.516 388.274 243.516 251.018C243.516 113.762 357.833 0 497.001 0C636.17 0 750.487 112.525 750.487 249.781C750.487 387.037 636.17 500.799 497.001 500.799ZM497.001 12.3654C364.046 12.3654 255.942 118.708 255.942 251.018C255.942 383.328 364.046 488.434 497.001 488.434C629.957 488.434 738.061 382.091 738.061 249.781C738.061 117.471 629.957 12.3654 497.001 12.3654Z" fill="url(#paint42_linear_485:1151)"/>
<path d="M497.001 989.233C357.833 989.233 243.516 876.707 243.516 739.451C243.516 602.195 357.833 488.434 497.001 488.434C636.17 488.434 750.487 600.959 750.487 738.215C750.487 875.471 636.17 989.233 497.001 989.233ZM497.001 500.799C364.046 500.799 255.942 607.142 255.942 739.451C255.942 871.761 364.046 976.867 497.001 976.867C629.957 976.867 738.061 870.525 738.061 738.215C738.061 605.905 629.957 500.799 497.001 500.799Z" fill="url(#paint43_linear_485:1151)"/>
</g>
<defs>
<linearGradient id="paint0_linear_485:1151" x1="1506.87" y1="1078.03" x2="1506.87" y2="1579.41" gradientUnits="userSpaceOnUse">
<stop stop-color="#72C8C8"/>
<stop offset="1" stop-color="#72C8B3" stop-opacity="0"/>
</linearGradient>
<linearGradient id="paint1_linear_485:1151" x1="1339.12" y1="619.781" x2="1339.12" y2="1120.65" gradientUnits="userSpaceOnUse">
<stop stop-color="#72C8C8"/>
<stop offset="1" stop-color="#72C8B3" stop-opacity="0"/>
</linearGradient>
<linearGradient id="paint2_linear_485:1151" x1="1423" y1="605" x2="1423" y2="1105.8" gradientUnits="userSpaceOnUse">
<stop stop-color="#72C8C8"/>
<stop offset="1" stop-color="#72C8B3" stop-opacity="0"/>
</linearGradient>
<linearGradient id="paint3_linear_485:1151" x1="1423" y1="1093.43" x2="1423" y2="1594.23" gradientUnits="userSpaceOnUse">
<stop stop-color="#72C8C8"/>
<stop offset="1" stop-color="#72C8B3" stop-opacity="0"/>
</linearGradient>
<linearGradient id="paint4_linear_485:1151" x1="1337.83" y1="1078.51" x2="1337.83" y2="1579.38" gradientUnits="userSpaceOnUse">
<stop stop-color="#72C8C8"/>
<stop offset="1" stop-color="#72C8B3" stop-opacity="0"/>
</linearGradient>
<linearGradient id="paint5_linear_485:1151" x1="1507.5" y1="619.636" x2="1507.5" y2="1120.63" gradientUnits="userSpaceOnUse">
<stop stop-color="#72C8C8"/>
<stop offset="1" stop-color="#72C8B3" stop-opacity="0"/>
</linearGradient>
<linearGradient id="paint6_linear_485:1151" x1="1582.05" y1="662.48" x2="1582.05" y2="1162.68" gradientUnits="userSpaceOnUse">
<stop stop-color="#72C8C8"/>
<stop offset="1" stop-color="#72C8B3" stop-opacity="0"/>
</linearGradient>
<linearGradient id="paint7_linear_485:1151" x1="1263.95" y1="1036.73" x2="1263.95" y2="1537.35" gradientUnits="userSpaceOnUse">
<stop stop-color="#72C8C8"/>
<stop offset="1" stop-color="#72C8B3" stop-opacity="0"/>
</linearGradient>
<linearGradient id="paint8_linear_485:1151" x1="1209.28" y1="970.987" x2="1209.28" y2="1471.83" gradientUnits="userSpaceOnUse">
<stop stop-color="#72C8C8"/>
<stop offset="1" stop-color="#72C8B3" stop-opacity="0"/>
</linearGradient>
<linearGradient id="paint9_linear_485:1151" x1="1637.97" y1="727.351" x2="1637.97" y2="1228.2" gradientUnits="userSpaceOnUse">
<stop stop-color="#72C8C8"/>
<stop offset="1" stop-color="#72C8B3" stop-opacity="0"/>
</linearGradient>
<linearGradient id="paint10_linear_485:1151" x1="1665.92" y1="806.662" x2="1665.92" y2="1307.35" gradientUnits="userSpaceOnUse">
<stop stop-color="#72C8C8"/>
<stop offset="1" stop-color="#72C8B3" stop-opacity="0"/>
</linearGradient>
<linearGradient id="paint11_linear_485:1151" x1="1179.65" y1="893.123" x2="1179.65" y2="1392.69" gradientUnits="userSpaceOnUse">
<stop stop-color="#72C8C8"/>
<stop offset="1" stop-color="#72C8B3" stop-opacity="0"/>
</linearGradient>
<linearGradient id="paint12_linear_485:1151" x1="1179.45" y1="806.662" x2="1179.45" y2="1307.35" gradientUnits="userSpaceOnUse">
<stop stop-color="#72C8C8"/>
<stop offset="1" stop-color="#72C8B3" stop-opacity="0"/>
</linearGradient>
<linearGradient id="paint13_linear_485:1151" x1="1666.55" y1="891.529" x2="1666.55" y2="1392.66" gradientUnits="userSpaceOnUse">
<stop stop-color="#72C8C8"/>
<stop offset="1" stop-color="#72C8B3" stop-opacity="0"/>
</linearGradient>
<linearGradient id="paint14_linear_485:1151" x1="1636.72" y1="970.987" x2="1636.72" y2="1471.83" gradientUnits="userSpaceOnUse">
<stop stop-color="#72C8C8"/>
<stop offset="1" stop-color="#72C8B3" stop-opacity="0"/>
</linearGradient>
<linearGradient id="paint15_linear_485:1151" x1="1208.02" y1="727.108" x2="1208.02" y2="1228.23" gradientUnits="userSpaceOnUse">
<stop stop-color="#72C8C8"/>
<stop offset="1" stop-color="#72C8B3" stop-opacity="0"/>
</linearGradient>
<linearGradient id="paint16_linear_485:1151" x1="1263.95" y1="662.384" x2="1263.95" y2="1162.69" gradientUnits="userSpaceOnUse">
<stop stop-color="#72C8C8"/>
<stop offset="1" stop-color="#72C8B3" stop-opacity="0"/>
</linearGradient>
<linearGradient id="paint17_linear_485:1151" x1="1582.05" y1="1037.16" x2="1582.05" y2="1537.36" gradientUnits="userSpaceOnUse">
<stop stop-color="#72C8C8"/>
<stop offset="1" stop-color="#72C8B3" stop-opacity="0"/>
</linearGradient>
<linearGradient id="paint18_linear_485:1151" x1="1506.87" y1="1078.03" x2="1506.87" y2="1579.41" gradientUnits="userSpaceOnUse">
<stop stop-color="#72C8C8"/>
<stop offset="1" stop-color="#72C8B3" stop-opacity="0"/>
</linearGradient>
<linearGradient id="paint19_linear_485:1151" x1="1339.12" y1="619.781" x2="1339.12" y2="1120.65" gradientUnits="userSpaceOnUse">
<stop stop-color="#72C8C8"/>
<stop offset="1" stop-color="#72C8B3" stop-opacity="0"/>
</linearGradient>
<linearGradient id="paint20_linear_485:1151" x1="1423" y1="605" x2="1423" y2="1105.8" gradientUnits="userSpaceOnUse">
<stop stop-color="#72C8C8"/>
<stop offset="1" stop-color="#72C8B3" stop-opacity="0"/>
</linearGradient>
<linearGradient id="paint21_linear_485:1151" x1="1423" y1="1093.43" x2="1423" y2="1594.23" gradientUnits="userSpaceOnUse">
<stop stop-color="#72C8C8"/>
<stop offset="1" stop-color="#72C8B3" stop-opacity="0"/>
</linearGradient>
<linearGradient id="paint22_linear_485:1151" x1="580.871" y1="473.025" x2="580.871" y2="974.409" gradientUnits="userSpaceOnUse">
<stop stop-color="#72C8C8"/>
<stop offset="1" stop-color="#72C8B3" stop-opacity="0"/>
</linearGradient>
<linearGradient id="paint23_linear_485:1151" x1="413.124" y1="14.7805" x2="413.124" y2="515.654" gradientUnits="userSpaceOnUse">
<stop stop-color="#72C8C8"/>
<stop offset="1" stop-color="#72C8B3" stop-opacity="0"/>
</linearGradient>
<linearGradient id="paint24_linear_485:1151" x1="497.001" y1="0" x2="497.001" y2="500.799" gradientUnits="userSpaceOnUse">
<stop stop-color="#72C8C8"/>
<stop offset="1" stop-color="#72C8B3" stop-opacity="0"/>
</linearGradient>
<linearGradient id="paint25_linear_485:1151" x1="497.001" y1="488.434" x2="497.001" y2="989.233" gradientUnits="userSpaceOnUse">
<stop stop-color="#72C8C8"/>
<stop offset="1" stop-color="#72C8B3" stop-opacity="0"/>
</linearGradient>
<linearGradient id="paint26_linear_485:1151" x1="411.83" y1="473.508" x2="411.83" y2="974.382" gradientUnits="userSpaceOnUse">
<stop stop-color="#72C8C8"/>
<stop offset="1" stop-color="#72C8B3" stop-opacity="0"/>
</linearGradient>
<linearGradient id="paint27_linear_485:1151" x1="581.496" y1="14.6364" x2="581.496" y2="515.634" gradientUnits="userSpaceOnUse">
<stop stop-color="#72C8C8"/>
<stop offset="1" stop-color="#72C8B3" stop-opacity="0"/>
</linearGradient>
<linearGradient id="paint28_linear_485:1151" x1="656.05" y1="57.4798" x2="656.05" y2="557.682" gradientUnits="userSpaceOnUse">
<stop stop-color="#72C8C8"/>
<stop offset="1" stop-color="#72C8B3" stop-opacity="0"/>
</linearGradient>
<linearGradient id="paint29_linear_485:1151" x1="337.948" y1="431.727" x2="337.948" y2="932.351" gradientUnits="userSpaceOnUse">
<stop stop-color="#72C8C8"/>
<stop offset="1" stop-color="#72C8B3" stop-opacity="0"/>
</linearGradient>
<linearGradient id="paint30_linear_485:1151" x1="283.28" y1="365.987" x2="283.28" y2="866.832" gradientUnits="userSpaceOnUse">
<stop stop-color="#72C8C8"/>
<stop offset="1" stop-color="#72C8B3" stop-opacity="0"/>
</linearGradient>
<linearGradient id="paint31_linear_485:1151" x1="711.969" y1="122.351" x2="711.969" y2="623.196" gradientUnits="userSpaceOnUse">
<stop stop-color="#72C8C8"/>
<stop offset="1" stop-color="#72C8B3" stop-opacity="0"/>
</linearGradient>
<linearGradient id="paint32_linear_485:1151" x1="739.923" y1="201.662" x2="739.923" y2="702.354" gradientUnits="userSpaceOnUse">
<stop stop-color="#72C8C8"/>
<stop offset="1" stop-color="#72C8B3" stop-opacity="0"/>
</linearGradient>
<linearGradient id="paint33_linear_485:1151" x1="253.654" y1="288.123" x2="253.654" y2="787.693" gradientUnits="userSpaceOnUse">
<stop stop-color="#72C8C8"/>
<stop offset="1" stop-color="#72C8B3" stop-opacity="0"/>
</linearGradient>
<linearGradient id="paint34_linear_485:1151" x1="253.454" y1="201.662" x2="253.454" y2="702.354" gradientUnits="userSpaceOnUse">
<stop stop-color="#72C8C8"/>
<stop offset="1" stop-color="#72C8B3" stop-opacity="0"/>
</linearGradient>
<linearGradient id="paint35_linear_485:1151" x1="740.546" y1="286.529" x2="740.546" y2="787.655" gradientUnits="userSpaceOnUse">
<stop stop-color="#72C8C8"/>
<stop offset="1" stop-color="#72C8B3" stop-opacity="0"/>
</linearGradient>
<linearGradient id="paint36_linear_485:1151" x1="710.725" y1="365.987" x2="710.725" y2="866.832" gradientUnits="userSpaceOnUse">
<stop stop-color="#72C8C8"/>
<stop offset="1" stop-color="#72C8B3" stop-opacity="0"/>
</linearGradient>
<linearGradient id="paint37_linear_485:1151" x1="282.018" y1="122.108" x2="282.018" y2="623.232" gradientUnits="userSpaceOnUse">
<stop stop-color="#72C8C8"/>
<stop offset="1" stop-color="#72C8B3" stop-opacity="0"/>
</linearGradient>
<linearGradient id="paint38_linear_485:1151" x1="337.948" y1="57.3842" x2="337.948" y2="557.69" gradientUnits="userSpaceOnUse">
<stop stop-color="#72C8C8"/>
<stop offset="1" stop-color="#72C8B3" stop-opacity="0"/>
</linearGradient>
<linearGradient id="paint39_linear_485:1151" x1="656.05" y1="432.161" x2="656.05" y2="932.364" gradientUnits="userSpaceOnUse">
<stop stop-color="#72C8C8"/>
<stop offset="1" stop-color="#72C8B3" stop-opacity="0"/>
</linearGradient>
<linearGradient id="paint40_linear_485:1151" x1="580.871" y1="473.025" x2="580.871" y2="974.409" gradientUnits="userSpaceOnUse">
<stop stop-color="#72C8C8"/>
<stop offset="1" stop-color="#72C8B3" stop-opacity="0"/>
</linearGradient>
<linearGradient id="paint41_linear_485:1151" x1="413.124" y1="14.7805" x2="413.124" y2="515.654" gradientUnits="userSpaceOnUse">
<stop stop-color="#72C8C8"/>
<stop offset="1" stop-color="#72C8B3" stop-opacity="0"/>
</linearGradient>
<linearGradient id="paint42_linear_485:1151" x1="497.001" y1="0" x2="497.001" y2="500.799" gradientUnits="userSpaceOnUse">
<stop stop-color="#72C8C8"/>
<stop offset="1" stop-color="#72C8B3" stop-opacity="0"/>
</linearGradient>
<linearGradient id="paint43_linear_485:1151" x1="497.001" y1="488.434" x2="497.001" y2="989.233" gradientUnits="userSpaceOnUse">
<stop stop-color="#72C8C8"/>
<stop offset="1" stop-color="#72C8B3" stop-opacity="0"/>
</linearGradient>
</defs>
</svg>
