<svg width="34" height="34" viewBox="0 0 34 34" fill="none" xmlns="http://www.w3.org/2000/svg">
<path d="M32.9714 17.2106C32.9714 25.9704 25.8701 33.0716 17.1103 33.0716C8.35054 33.0716 1.24932 25.9704 1.24932 17.2106C1.24932 8.45076 8.35054 1.34954 17.1103 1.34954C25.8701 1.34954 32.9714 8.45076 32.9714 17.2106Z" fill="#E5E7EB" stroke="white" stroke-width="1.02329"/>
<path d="M14.3392 22.6676C13.9495 22.6676 13.5645 22.64 13.1841 22.5848C12.8036 22.5296 12.4348 22.4491 12.0776 22.3433C11.7204 22.2375 11.3748 22.1064 11.0408 21.95C10.7067 21.7936 10.3913 21.6142 10.0944 21.4118C10.1964 21.4302 10.3008 21.4417 10.4075 21.4463C10.5142 21.4509 10.6279 21.4532 10.7485 21.4532C11.398 21.4532 12.015 21.3497 12.5995 21.1428C13.1841 20.9358 13.7176 20.6483 14.2 20.2803C13.5877 20.2711 13.0449 20.0871 12.5717 19.7283C12.0985 19.3696 11.7737 18.9188 11.5975 18.376C11.681 18.3944 11.7668 18.4082 11.8549 18.4174C11.9431 18.4266 12.0335 18.4312 12.1263 18.4312C12.2469 18.4312 12.3699 18.422 12.4951 18.4036C12.6204 18.3852 12.7387 18.3622 12.85 18.3346C12.2191 18.2058 11.6926 17.8908 11.2704 17.3894C10.8482 16.888 10.6371 16.3016 10.6371 15.63C10.6371 15.63 10.6371 15.6277 10.6371 15.6231C10.6371 15.6185 10.6371 15.6116 10.6371 15.6024C10.8227 15.7036 11.0199 15.7841 11.2286 15.8439C11.4374 15.9037 11.6578 15.9382 11.8897 15.9474C11.5093 15.699 11.2078 15.3747 10.9851 14.9745C10.7624 14.5744 10.6511 14.1351 10.6511 13.6567C10.6511 13.3991 10.6812 13.1554 10.7415 12.9254C10.8018 12.6954 10.8923 12.4792 11.0129 12.2768C11.3562 12.6908 11.7413 13.068 12.1681 13.4083C12.5856 13.7487 13.0379 14.0408 13.525 14.2846C14.0122 14.5284 14.5248 14.7239 15.0629 14.871C15.6104 15.0182 16.1717 15.101 16.747 15.1194C16.7284 15.0274 16.7122 14.9285 16.6982 14.8227C16.6843 14.717 16.6774 14.6089 16.6774 14.4985C16.6774 14.1213 16.747 13.7671 16.8861 13.4359C17.0346 13.0956 17.2341 12.8012 17.4846 12.5528C17.7351 12.3044 18.032 12.1066 18.3753 11.9594C18.7093 11.8214 19.0665 11.7524 19.447 11.7524C19.8459 11.7524 20.2194 11.8306 20.5673 11.987C20.9153 12.1434 21.2191 12.355 21.4789 12.6218C21.7944 12.5666 22.1006 12.4815 22.3975 12.3665C22.6944 12.2515 22.9774 12.1158 23.2465 11.9594C23.1351 12.2814 22.9727 12.5735 22.7593 12.8357C22.5459 13.0979 22.3001 13.3163 22.0217 13.4911C22.3001 13.4543 22.5738 13.3991 22.8428 13.3255C23.1119 13.2519 23.3671 13.16 23.6083 13.0496C23.4227 13.3255 23.214 13.5831 22.982 13.8223C22.7501 14.0615 22.4995 14.2777 22.2305 14.4709C22.2397 14.5261 22.2444 14.5859 22.2444 14.6503C22.2444 14.7147 22.2444 14.7745 22.2444 14.8296C22.2444 15.7404 22.0727 16.6603 21.7294 17.5895C21.3861 18.5186 20.8805 19.3604 20.2124 20.1147C19.5444 20.8691 18.7186 21.4854 17.7351 21.9638C16.7516 22.433 15.6196 22.6676 14.3392 22.6676Z" fill="#1E7DB8"/>
</svg>
