<svg width="33" height="34" viewBox="0 0 33 34" fill="none" xmlns="http://www.w3.org/2000/svg">
<path d="M32.2337 17.2106C32.2337 25.9704 25.1325 33.0716 16.3727 33.0716C7.61287 33.0716 0.511646 25.9704 0.511646 17.2106C0.511646 8.45076 7.61287 1.34954 16.3727 1.34954C25.1325 1.34954 32.2337 8.45076 32.2337 17.2106Z" fill="white" stroke="white" stroke-width="1.02329"/>
<path d="M17.8948 13.9599C17.7596 13.9599 17.6443 14.0079 17.5489 14.1039C17.4534 14.1998 17.4057 14.3158 17.4057 14.4517V15.6152C17.4057 15.6472 17.4157 15.6752 17.4355 15.6992C17.4554 15.7232 17.4852 15.7351 17.525 15.7351H19.3144C19.4496 15.7351 19.5649 15.7831 19.6603 15.8791C19.7557 15.975 19.8035 16.091 19.8035 16.2269V17.4384C19.8035 17.5743 19.7557 17.6903 19.6603 17.7862C19.5649 17.8822 19.4496 17.9302 19.3144 17.9302H17.5369C17.4972 17.9302 17.4674 17.9422 17.4475 17.9661C17.4276 17.9901 17.4176 18.0221 17.4176 18.0621V22.1763C17.4176 22.3122 17.3699 22.4281 17.2745 22.5241C17.1791 22.6201 17.0637 22.668 16.9286 22.668H15.7118C15.5845 22.668 15.4712 22.6201 15.3718 22.5241C15.2724 22.4281 15.2227 22.3122 15.2227 22.1763V18.0621C15.2227 18.0221 15.2128 17.9901 15.1929 17.9661C15.173 17.9422 15.1432 17.9302 15.1034 17.9302H13.7435C13.6083 17.9302 13.493 17.8822 13.3975 17.7862C13.3021 17.6903 13.2544 17.5743 13.2544 17.4384V16.2269C13.2544 16.091 13.3021 15.975 13.3975 15.8791C13.493 15.7831 13.6083 15.7351 13.7435 15.7351H15.1034C15.1432 15.7351 15.173 15.7232 15.1929 15.6992C15.2128 15.6752 15.2227 15.6472 15.2227 15.6152V13.9479C15.2227 13.3402 15.4354 12.8225 15.8609 12.3946C16.2864 11.9668 16.8013 11.7529 17.4057 11.7529H19.3024C19.4376 11.7529 19.553 11.8009 19.6484 11.8969C19.7438 11.9928 19.7915 12.1088 19.7915 12.2447V13.4682C19.7915 13.6041 19.7438 13.72 19.6484 13.816C19.553 13.912 19.4376 13.9599 19.3024 13.9599H17.8948Z" fill="#1E7DB8"/>
</svg>
