<svg width="34" height="34" viewBox="0 0 34 34" fill="none" xmlns="http://www.w3.org/2000/svg">
<path d="M32.709 17.2106C32.709 25.9704 25.6078 33.0716 16.848 33.0716C8.08821 33.0716 0.986988 25.9704 0.986988 17.2106C0.986988 8.45076 8.08821 1.34954 16.848 1.34954C25.6078 1.34954 32.709 8.45076 32.709 17.2106Z" fill="#E5E7EB" stroke="white" stroke-width="1.02329"/>
<path d="M22.6215 15.2934C22.6298 15.5911 22.636 15.8557 22.6401 16.0872C22.6442 16.3187 22.6463 16.8066 22.6463 17.5508C22.6463 18.295 22.6442 18.7829 22.6401 19.0144C22.636 19.246 22.6298 19.5064 22.6215 19.7959C22.605 20.0935 22.574 20.3457 22.5285 20.5525C22.483 20.7592 22.4272 20.9494 22.361 21.123C22.2949 21.305 22.2122 21.4745 22.113 21.6316C22.0137 21.7887 21.8856 21.9417 21.7285 22.0905C21.5796 22.2476 21.4266 22.3758 21.2695 22.475C21.1124 22.5743 20.9429 22.6569 20.761 22.7231C20.5873 22.7892 20.3971 22.8451 20.1904 22.8905C19.9837 22.936 19.7356 22.967 19.4462 22.9836C19.1485 22.9918 18.8839 22.998 18.6524 23.0022C18.4208 23.0063 17.933 23.0084 17.1888 23.0084C16.4445 23.0084 15.9567 23.0063 15.7251 23.0022C15.4936 22.998 15.2331 22.9918 14.9437 22.9836C14.646 22.967 14.3938 22.936 14.1871 22.8905C13.9804 22.8451 13.7902 22.7892 13.6165 22.7231C13.4346 22.6569 13.2651 22.5743 13.108 22.475C12.9509 22.3758 12.7979 22.2476 12.6491 22.0905C12.492 21.9417 12.3638 21.7887 12.2646 21.6316C12.1653 21.4745 12.0826 21.305 12.0165 21.123C11.9503 20.9494 11.8945 20.7592 11.849 20.5525C11.8036 20.3457 11.7725 20.0977 11.756 19.8083C11.7477 19.5106 11.7415 19.246 11.7374 19.0144C11.7333 18.7829 11.7312 18.295 11.7312 17.5508C11.7312 16.8066 11.7333 16.3187 11.7374 16.0872C11.7415 15.8557 11.7477 15.5952 11.756 15.3058C11.7725 15.0081 11.8036 14.7559 11.849 14.5492C11.8945 14.3424 11.9503 14.1522 12.0165 13.9786C12.0826 13.7967 12.1653 13.6272 12.2646 13.4701C12.3638 13.3129 12.492 13.16 12.6491 13.0111C12.7979 12.854 12.9509 12.7258 13.108 12.6266C13.2651 12.5274 13.4346 12.4447 13.6165 12.3785C13.7902 12.3124 13.9804 12.2566 14.1871 12.2111C14.3938 12.1656 14.6419 12.1346 14.9313 12.1181C15.229 12.1098 15.4936 12.1036 15.7251 12.0995C15.9567 12.0953 16.4445 12.0933 17.1888 12.0933C17.933 12.0933 18.4208 12.0953 18.6524 12.0995C18.8839 12.1036 19.1444 12.1098 19.4338 12.1181C19.7315 12.1346 19.9837 12.1656 20.1904 12.2111C20.3971 12.2566 20.5873 12.3124 20.761 12.3785C20.9429 12.4447 21.1124 12.5274 21.2695 12.6266C21.4266 12.7258 21.5796 12.854 21.7285 13.0111C21.8856 13.16 22.0137 13.3129 22.113 13.4701C22.2122 13.6272 22.2949 13.7967 22.361 13.9786C22.4272 14.1522 22.483 14.3424 22.5285 14.5492C22.574 14.7559 22.605 15.004 22.6215 15.2934ZM21.6292 19.7586C21.6458 19.4692 21.6561 19.2108 21.6602 18.9834C21.6644 18.756 21.6664 18.2785 21.6664 17.5508C21.6664 16.8231 21.6644 16.3456 21.6602 16.1182C21.6561 15.8908 21.6458 15.6324 21.6292 15.343C21.621 15.0784 21.5982 14.8675 21.561 14.7104C21.5238 14.5533 21.4845 14.4251 21.4432 14.3259C21.3936 14.2019 21.3377 14.0902 21.2757 13.991C21.2137 13.8918 21.1331 13.7967 21.0339 13.7057C20.9429 13.6065 20.8478 13.5259 20.7486 13.4639C20.6493 13.4018 20.5377 13.346 20.4137 13.2964C20.3144 13.2551 20.1863 13.2158 20.0292 13.1786C19.8721 13.1414 19.6612 13.1186 19.3966 13.1104C19.1072 13.0938 18.8488 13.0835 18.6214 13.0793C18.394 13.0752 17.9164 13.0731 17.1888 13.0731C16.4611 13.0731 15.9835 13.0752 15.7561 13.0793C15.5287 13.0835 15.2703 13.0938 14.9809 13.1104C14.7163 13.1186 14.5055 13.1414 14.3483 13.1786C14.1912 13.2158 14.0631 13.2551 13.9638 13.2964C13.8398 13.346 13.7282 13.4018 13.6289 13.4639C13.5297 13.5259 13.4346 13.6065 13.3437 13.7057C13.2444 13.7967 13.1638 13.8918 13.1018 13.991C13.0398 14.0902 12.984 14.2019 12.9343 14.3259C12.893 14.4251 12.8537 14.5533 12.8165 14.7104C12.7793 14.8675 12.7566 15.0784 12.7483 15.343C12.7318 15.6324 12.7214 15.8908 12.7173 16.1182C12.7131 16.3456 12.7111 16.8231 12.7111 17.5508C12.7111 18.2785 12.7131 18.756 12.7173 18.9834C12.7214 19.2108 12.7318 19.4692 12.7483 19.7586C12.7566 20.0233 12.7793 20.2341 12.8165 20.3912C12.8537 20.5483 12.893 20.6765 12.9343 20.7757C12.984 20.8998 13.0398 21.0114 13.1018 21.1106C13.1638 21.2099 13.2444 21.305 13.3437 21.3959C13.4346 21.4951 13.5297 21.5758 13.6289 21.6378C13.7282 21.6998 13.8398 21.7556 13.9638 21.8052C14.0631 21.8466 14.1912 21.8859 14.3483 21.9231C14.5055 21.9603 14.7163 21.983 14.9809 21.9913C15.2703 22.0078 15.5287 22.0182 15.7561 22.0223C15.9835 22.0264 16.4611 22.0285 17.1888 22.0285C17.9164 22.0285 18.394 22.0264 18.6214 22.0223C18.8488 22.0182 19.1072 22.0078 19.3966 21.9913C19.6612 21.983 19.8721 21.9603 20.0292 21.9231C20.1863 21.8859 20.3144 21.8466 20.4137 21.8052C20.5377 21.7556 20.6493 21.6998 20.7486 21.6378C20.8478 21.5758 20.9429 21.4951 21.0339 21.3959C21.1331 21.305 21.2137 21.2099 21.2757 21.1106C21.3377 21.0114 21.3936 20.8998 21.4432 20.7757C21.4845 20.6765 21.5238 20.5483 21.561 20.3912C21.5982 20.2341 21.621 20.0233 21.6292 19.7586ZM17.1888 14.7476C17.5774 14.7476 17.9412 14.822 18.2803 14.9709C18.6193 15.1115 18.917 15.3099 19.1733 15.5663C19.4297 15.8226 19.6281 16.1203 19.7687 16.4593C19.9175 16.7983 19.992 17.1622 19.992 17.5508C19.992 17.9395 19.9175 18.3033 19.7687 18.6423C19.6281 18.9814 19.4297 19.279 19.1733 19.5354C18.917 19.7917 18.6193 19.9902 18.2803 20.1308C17.9412 20.2796 17.5774 20.354 17.1888 20.354C16.8001 20.354 16.4363 20.2796 16.0972 20.1308C15.7582 19.9902 15.4605 19.7917 15.2042 19.5354C14.9479 19.279 14.7494 18.9814 14.6088 18.6423C14.46 18.3033 14.3856 17.9395 14.3856 17.5508C14.3856 17.1622 14.46 16.7983 14.6088 16.4593C14.7494 16.1203 14.9479 15.8226 15.2042 15.5663C15.4605 15.3099 15.7582 15.1115 16.0972 14.9709C16.4363 14.822 16.8001 14.7476 17.1888 14.7476ZM17.1888 19.3741C17.6932 19.3741 18.1232 19.1964 18.4787 18.8408C18.8343 18.4852 19.0121 18.0552 19.0121 17.5508C19.0121 17.0464 18.8343 16.6164 18.4787 16.2608C18.1232 15.9053 17.6932 15.7275 17.1888 15.7275C16.6843 15.7275 16.2544 15.9053 15.8988 16.2608C15.5432 16.6164 15.3654 17.0464 15.3654 17.5508C15.3654 18.0552 15.5432 18.4852 15.8988 18.8408C16.2544 19.1964 16.6843 19.3741 17.1888 19.3741ZM20.7362 14.4871C20.7775 14.6608 20.7506 14.8241 20.6555 14.9771C20.5605 15.1301 20.4261 15.2272 20.2524 15.2686C20.0788 15.3099 19.9155 15.283 19.7625 15.1879C19.6095 15.0928 19.5124 14.9585 19.471 14.7848C19.4297 14.6112 19.4565 14.4479 19.5516 14.2949C19.6467 14.1419 19.7811 14.0448 19.9547 14.0034C20.1284 13.9538 20.2917 13.9786 20.4447 14.0778C20.5977 14.1771 20.6948 14.3135 20.7362 14.4871Z" fill="#1E7DB8"/>
</svg>
