<svg width="259" height="92" viewBox="0 0 259 92" fill="none" xmlns="http://www.w3.org/2000/svg">
<path fill-rule="evenodd" clip-rule="evenodd" d="M28.6621 14.9052L28.9064 21.494C29.6971 28.143 29.1934 45.8505 28.3099 52.6048C27.6459 57.6795 26.1683 68.3387 24.3683 73.0528C23.6113 75.0355 22.7981 77.0443 22.1789 79.007L22.056 78.6541L20.6235 82.2775C20.3188 82.9919 20.1009 82.9306 19.8539 83.9988C19.56 85.2719 20.0306 85.1272 18.7518 85.5333C23.1919 88.7919 31.5942 91.0402 38.6178 91.0946L38.4352 19.7273L38.3918 13.5628L38.4245 0.229797C37.0146 0.796468 33.0356 4.67081 31.6685 5.94031C27.775 9.55559 28.1752 7.40139 28.6623 14.9052H28.6621Z" fill="#0291DE"/>
<path fill-rule="evenodd" clip-rule="evenodd" d="M56.233 79.6549L56.2339 80.3347C55.9516 79.6975 55.6388 79.2968 55.371 78.7605C45.1354 57.0167 42.4276 43.0853 39.0964 20.3069L39.1014 91.052C42.8768 91.2611 46.7753 90.3551 49.9068 89.4282C53.5767 88.3418 55.8306 86.9664 58.7488 85.5937C58.4731 84.0869 57.9884 83.7258 57.5077 82.5032C57.3291 82.0487 57.1844 81.4982 56.9924 81.0056L56.2332 79.6549H56.233Z" fill="#0291DE"/>
<path fill-rule="evenodd" clip-rule="evenodd" d="M28.9067 21.4946L28.6624 14.9058C-1.59615 23.5846 -7.52026 58.8925 9.10737 77.2767C9.63971 76.9883 13.5714 72.0794 14.0184 71.229C13.7485 70.717 14.0144 71.1546 13.6026 70.5541C10.7645 66.4207 9.02496 63.4263 7.90488 57.8873C5.72653 47.1174 9.15568 36.4236 16.7805 28.9049C19.1182 26.5996 24.5548 22.4165 28.907 21.4948L28.9067 21.4946Z" fill="white"/>
<path fill-rule="evenodd" clip-rule="evenodd" d="M39.0207 19.7414C37.4789 22.8198 48.189 71.7076 55.3701 78.7606C55.7977 79.1807 55.9509 79.6976 56.233 80.3349L56.232 79.655L52.2182 67.2193C48.8438 53.5088 47.4317 35.2428 48.7251 21.2081C48.5643 17.4884 49.8002 12.5151 49.1329 8.26326C49.1059 8.21471 39.8677 0.329867 39.028 0C38.8365 6.32526 38.9773 13.6138 39.0207 19.7411V19.7414Z" fill="#007AAD"/>
<path fill-rule="evenodd" clip-rule="evenodd" d="M48.7248 21.209C52.9847 21.9443 58.7357 26.1383 61.1373 28.3328C64.4386 31.349 67.1159 35.1511 69.1145 40.1346C72.7364 49.1649 71.6812 59.4469 66.7025 67.892C66.1067 68.9029 65.1772 70.001 64.7143 70.9757C65.8675 72.6814 67.8254 74.006 69.1986 75.829C70.7769 74.9857 73.2468 69.9098 73.8897 68.4753C78.3601 58.5006 78.5845 48.1452 74.7384 38.1201C70.547 27.1954 60.5266 18.0416 49.2036 15.0619C49.1037 16.2134 49.1106 17.2831 49.1011 18.4368C49.0871 20.1074 48.6763 20.0852 48.7248 21.209Z" fill="white"/>
<path fill-rule="evenodd" clip-rule="evenodd" d="M64.1457 71.9866C60.812 69.5615 56.738 63.8862 54.5819 59.024C53.3615 56.2718 52.5237 54.0189 51.585 50.8111C51.1421 49.2973 49.6335 42.7321 49.1935 42.1055C49.6531 46.0611 49.6493 50.2966 50.1717 54.2815C50.7176 58.4421 51.3889 61.8715 52.3098 65.5666C53.204 69.1542 57.7085 83.5168 59.3775 85.0747C62.4052 83.3238 67.1209 79.2072 68.6826 76.8145C68.1446 76.1678 67.0724 75.0555 66.397 74.3634C65.7804 73.7316 64.5237 72.8426 64.1457 71.9866Z" fill="white"/>
<path fill-rule="evenodd" clip-rule="evenodd" d="M49.1948 42.1048C49.6348 42.7314 51.1435 49.2965 51.5863 50.8104C52.525 54.0182 53.3628 56.2711 54.5833 59.0232C56.7394 63.8853 60.8134 69.5608 64.1471 71.9859C63.6053 70.6924 62.6292 69.394 61.9524 68.1721C57.6556 60.4135 55.9274 53.5843 56.0297 44.3158C56.0723 40.4529 56.7811 36.3166 56.729 32.7032C55.5961 31.9654 54.3896 30.6582 53.0554 29.5722C52.1634 28.8459 50.3874 26.7493 49.3094 26.5639L49.1948 42.1048Z" fill="#A9A9A9"/>
<path fill-rule="evenodd" clip-rule="evenodd" d="M23.8795 52.3855C24.0718 55.6629 24.2074 58.9753 24.1698 62.3417C24.1328 65.6534 23.5614 69.1503 23.6145 72.2422C27.2622 68.7764 30.2566 33.8017 28.5173 26.4468L21.3722 33.4097L23.8795 52.3855Z" fill="#A9A9A9"/>
<path fill-rule="evenodd" clip-rule="evenodd" d="M21.565 37.2399C20.901 44.8614 22.7734 51.9494 20.0566 61.8878C17.8711 69.8811 10.6621 75.4967 9.79211 78.0835C11.0027 80.0362 16.3871 84.31 18.753 85.5331C20.0317 85.127 19.5612 85.2717 19.8551 83.9986C20.1018 82.9304 20.3199 82.9917 20.6247 82.2773L22.0571 78.654L23.6155 72.2428C25.2312 58.96 23.8786 46.542 21.5146 34.4785L21.5653 37.2396L21.565 37.2399Z" fill="white"/>
<path d="M104.165 28.9808C103.914 29.3202 103.611 29.606 103.254 29.8739C102.628 30.3205 101.753 30.7671 100.592 30.7671C98.359 30.7671 96.5727 28.9808 96.5727 26.7479C96.5727 24.5149 98.359 22.7286 100.592 22.7286C101.717 22.7286 102.575 23.1752 103.164 23.6218C103.504 23.8897 103.807 24.1755 104.075 24.5149L105.862 22.7286C105.486 22.2642 105.058 21.8533 104.54 21.4782C103.664 20.853 102.325 20.2278 100.592 20.2278C96.7334 20.2278 93.8038 23.1752 93.8038 26.7479C93.8038 30.3205 96.7334 33.2679 100.592 33.2679C102.378 33.2679 103.7 32.6427 104.611 32.0175C105.129 31.6424 105.576 31.2315 105.951 30.7671L104.165 28.9808ZM107.918 33H110.597V28.8914H113.098L115.331 33H118.279L115.688 28.3555C116.099 28.1769 116.457 27.9268 116.76 27.6053C117.314 27.0515 117.832 26.1226 117.832 24.6936C117.832 22.1927 116.135 20.4957 113.456 20.4957H107.918V33ZM110.597 26.3906V22.9966H113.366C114.367 22.9966 115.063 23.6932 115.063 24.6936C115.063 25.6939 114.367 26.3906 113.366 26.3906H110.597ZM120.513 33H129.98V30.4991H123.192V27.8197H128.373V25.4081H123.192V22.9966H129.802V20.4957H120.513V33ZM132.393 33H136.948C140.788 33 143.557 30.2312 143.557 26.7479C143.557 23.2645 140.788 20.4957 136.948 20.4957H132.393V33ZM135.072 30.4991V22.9966H136.948C139.181 22.9966 140.788 24.6043 140.788 26.7479C140.788 28.8914 139.181 30.4991 136.948 30.4991H135.072ZM145.965 33H148.644V20.4957H145.965V33ZM154.183 33H156.863V22.9966H160.435V20.4957H150.61V22.9966H154.183V33ZM175.164 28.9808C174.914 29.3202 174.61 29.606 174.253 29.8739C173.628 30.3205 172.753 30.7671 171.591 30.7671C169.359 30.7671 167.572 28.9808 167.572 26.7479C167.572 24.5149 169.359 22.7286 171.591 22.7286C172.717 22.7286 173.574 23.1752 174.164 23.6218C174.503 23.8897 174.807 24.1755 175.075 24.5149L176.861 22.7286C176.486 22.2642 176.057 21.8533 175.539 21.4782C174.664 20.853 173.324 20.2278 171.591 20.2278C167.733 20.2278 164.803 23.1752 164.803 26.7479C164.803 30.3205 167.733 33.2679 171.591 33.2679C173.378 33.2679 174.7 32.6427 175.611 32.0175C176.129 31.6424 176.575 31.2315 176.95 30.7671L175.164 28.9808ZM182.222 27.7303L183.705 23.6218H183.776L185.259 27.7303H182.222ZM177.399 33H180.257L181.329 30.1419H186.152L187.224 33H190.082L185.259 20.4957H182.222L177.399 33ZM191.774 33H194.454V28.8914H197.044C199.705 28.8914 201.51 27.123 201.51 24.6936C201.51 22.2642 199.705 20.4957 197.044 20.4957H191.774V33ZM194.454 26.3906V22.9966H196.954C198.026 22.9966 198.741 23.6932 198.741 24.6936C198.741 25.6939 198.026 26.3906 196.954 26.3906H194.454ZM203.916 33H206.595V20.4957H203.916V33ZM212.134 33H214.814V22.9966H218.386V20.4957H208.561V22.9966H212.134V33ZM222.589 27.7303L224.072 23.6218H224.143L225.626 27.7303H222.589ZM217.766 33H220.624L221.696 30.1419H226.519L227.591 33H230.449L225.626 20.4957H222.589L217.766 33ZM232.141 33H240.626V30.4991H234.82V20.4957H232.141V33Z" fill="#0291DE"/>
<path d="M93.3573 51.0867C93.6788 51.4618 94.0718 51.7834 94.5541 52.0692C95.358 52.5694 96.5548 53.0517 98.1803 53.0517C101.128 53.0517 102.914 51.2653 102.914 49.2111C102.914 44.8524 96.662 45.7992 96.662 43.6735C96.662 42.9589 97.18 42.423 98.5376 42.423C99.2521 42.423 99.8238 42.691 100.235 42.9589C100.467 43.1197 100.663 43.2983 100.86 43.4948L102.646 41.7085C102.342 41.4048 102.003 41.119 101.592 40.8689C100.896 40.4402 99.8238 40.0115 98.4483 40.0115C95.5902 40.0115 93.8932 41.7085 93.8932 43.6735C93.8932 48.0321 100.145 47.0853 100.145 49.2111C100.145 50.0149 99.5201 50.6401 98.091 50.6401C97.1443 50.6401 96.4119 50.3186 95.9117 49.9792C95.608 49.7827 95.358 49.5505 95.1436 49.3004L93.3573 51.0867ZM105.057 52.7837H114.525V50.2829H107.737V47.6034H112.917V45.1918H107.737V42.7803H114.346V40.2794H105.057V52.7837ZM116.937 52.7837H119.616V48.6752H122.117L124.35 52.7837H127.297L124.707 48.1393C125.118 47.9606 125.475 47.7106 125.779 47.389C126.333 46.8353 126.851 45.9064 126.851 44.4773C126.851 41.9764 125.154 40.2794 122.474 40.2794H116.937V52.7837ZM119.616 46.1743V42.7803H122.385C123.385 42.7803 124.082 43.477 124.082 44.4773C124.082 45.4776 123.385 46.1743 122.385 46.1743H119.616ZM132.488 52.7837H135.524L140.169 40.2794H137.311L134.042 49.479H133.97L130.701 40.2794H127.843L132.488 52.7837ZM142.04 52.7837H144.719V40.2794H142.04V52.7837ZM157.493 48.7645C157.243 49.1039 156.939 49.3897 156.582 49.6576C155.956 50.1042 155.081 50.5508 153.92 50.5508C151.687 50.5508 149.901 48.7645 149.901 46.5316C149.901 44.2987 151.687 42.5123 153.92 42.5123C155.045 42.5123 155.903 42.9589 156.492 43.4055C156.832 43.6735 157.135 43.9593 157.403 44.2987L159.19 42.5123C158.815 42.0479 158.386 41.637 157.868 41.2619C156.993 40.6367 155.653 40.0115 153.92 40.0115C150.062 40.0115 147.132 42.9589 147.132 46.5316C147.132 50.1042 150.062 53.0517 153.92 53.0517C155.706 53.0517 157.028 52.4265 157.939 51.8012C158.457 51.4261 158.904 51.0153 159.279 50.5508L157.493 48.7645ZM161.246 52.7837H170.714V50.2829H163.926V47.6034H169.106V45.1918H163.926V42.7803H170.535V40.2794H161.246V52.7837ZM171.875 51.0867C172.197 51.4618 172.59 51.7834 173.072 52.0692C173.876 52.5694 175.073 53.0517 176.699 53.0517C179.646 53.0517 181.432 51.2653 181.432 49.2111C181.432 44.8524 175.18 45.7992 175.18 43.6735C175.18 42.9589 175.698 42.423 177.056 42.423C177.77 42.423 178.342 42.691 178.753 42.9589C178.985 43.1197 179.182 43.2983 179.378 43.4948L181.164 41.7085C180.861 41.4048 180.521 41.119 180.11 40.8689C179.414 40.4402 178.342 40.0115 176.966 40.0115C174.108 40.0115 172.411 41.7085 172.411 43.6735C172.411 48.0321 178.663 47.0853 178.663 49.2111C178.663 50.0149 178.038 50.6401 176.609 50.6401C175.662 50.6401 174.93 50.3186 174.43 49.9792C174.126 49.7827 173.876 49.5505 173.662 49.3004L171.875 51.0867Z" fill="#0291DE"/>
<path d="M95.8988 69.2642H102.09V67.4393H97.854V60.1399H95.8988V69.2642ZM103.524 69.2642H105.479V60.1399H103.524V69.2642ZM107.826 69.2642H109.781V63.2682L112.714 66.9179L115.647 63.2682V69.2642H117.602V60.1399H115.842L112.714 64.0503L109.586 60.1399H107.826V69.2642ZM119.944 69.2642H121.899V60.1399H119.944V69.2642ZM125.941 69.2642H127.896V61.9648H130.503V60.1399H123.334V61.9648H125.941V69.2642ZM131.935 69.2642H138.843V67.4393H133.89V65.4841H137.67V63.7244H133.89V61.9648H138.713V60.1399H131.935V69.2642ZM140.603 69.2642H143.927C146.73 69.2642 148.75 67.2438 148.75 64.702C148.75 62.1603 146.73 60.1399 143.927 60.1399H140.603V69.2642ZM142.559 67.4393V61.9648H143.927C145.557 61.9648 146.73 63.1379 146.73 64.702C146.73 66.2662 145.557 67.4393 143.927 67.4393H142.559Z" fill="white"/>
</svg>
