<svg width="260" height="92" viewBox="0 0 260 92" fill="none" xmlns="http://www.w3.org/2000/svg">
<path fill-rule="evenodd" clip-rule="evenodd" d="M28.6621 14.9049L28.9064 21.4937C29.6971 28.1427 29.1934 45.8502 28.3099 52.6045C27.6459 57.6792 26.1683 68.3384 24.3683 73.0525C23.6113 75.0352 22.7981 77.044 22.1789 79.0067L22.056 78.6538L20.6235 82.2772C20.3188 82.9916 20.1009 82.9303 19.8539 83.9985C19.56 85.2716 20.0306 85.1269 18.7518 85.533C23.1919 88.7916 31.5942 91.0398 38.6178 91.0943L38.4352 19.7269L38.3918 13.5625L38.4245 0.229492C37.0146 0.796163 33.0356 4.6705 31.6685 5.94001C27.775 9.55529 28.1752 7.40109 28.6623 14.9049H28.6621Z" fill="#0291DE"/>
<path fill-rule="evenodd" clip-rule="evenodd" d="M56.233 79.6546L56.2339 80.3344C55.9516 79.6972 55.6388 79.2965 55.371 78.7602C45.1354 57.0164 42.4276 43.085 39.0964 20.3066L39.1014 91.0517C42.8768 91.2608 46.7753 90.3548 49.9068 89.4279C53.5767 88.3415 55.8306 86.9661 58.7488 85.5934C58.4731 84.0866 57.9884 83.7255 57.5077 82.5028C57.3291 82.0484 57.1844 81.4978 56.9924 81.0053L56.2332 79.6546H56.233Z" fill="#0291DE"/>
<path fill-rule="evenodd" clip-rule="evenodd" d="M28.9067 21.4941L28.6624 14.9053C-1.59615 23.5841 -7.52026 58.892 9.10737 77.2762C9.63971 76.9878 13.5714 72.0789 14.0184 71.2285C13.7485 70.7165 14.0144 71.1542 13.6026 70.5536C10.7645 66.4202 9.02496 63.4258 7.90488 57.8868C5.72653 47.1169 9.15568 36.4231 16.7805 28.9044C19.1182 26.5991 24.5548 22.416 28.907 21.4943L28.9067 21.4941Z" fill="#4C4744"/>
<path fill-rule="evenodd" clip-rule="evenodd" d="M39.0207 19.7414C37.4789 22.8198 48.189 71.7076 55.3701 78.7606C55.7977 79.1807 55.9509 79.6976 56.233 80.3349L56.232 79.655L52.2182 67.2193C48.8438 53.5088 47.4317 35.2428 48.7251 21.2081C48.5643 17.4884 49.8002 12.5151 49.1329 8.26326C49.1059 8.21471 39.8677 0.329867 39.028 0C38.8365 6.32526 38.9773 13.6138 39.0207 19.7411V19.7414Z" fill="#007AAD"/>
<path fill-rule="evenodd" clip-rule="evenodd" d="M48.7248 21.2087C52.9847 21.944 58.7357 26.138 61.1373 28.3325C64.4386 31.3486 67.1159 35.1507 69.1145 40.1343C72.7364 49.1645 71.6812 59.4465 66.7025 67.8917C66.1067 68.9026 65.1772 70.0006 64.7143 70.9753C65.8675 72.681 67.8254 74.0057 69.1986 75.8286C70.7769 74.9854 73.2468 69.9095 73.8897 68.4749C78.3601 58.5003 78.5845 48.1449 74.7384 38.1198C70.547 27.1951 60.5266 18.0412 49.2036 15.0615C49.1037 16.2131 49.1106 17.2827 49.1011 18.4364C49.0871 20.1071 48.6763 20.0848 48.7248 21.2087Z" fill="#4C4744"/>
<path fill-rule="evenodd" clip-rule="evenodd" d="M64.1457 71.9865C60.812 69.5614 56.738 63.8862 54.5819 59.0239C53.3615 56.2718 52.5237 54.0188 51.585 50.8111C51.1421 49.2972 49.6335 42.7321 49.1935 42.1055C49.6531 46.061 49.6493 50.2965 50.1717 54.2814C50.7176 58.4421 51.3889 61.8715 52.3098 65.5665C53.204 69.1541 57.7085 83.5167 59.3775 85.0746C62.4052 83.3237 67.1209 79.2071 68.6826 76.8145C68.1446 76.1678 67.0724 75.0555 66.397 74.3633C65.7804 73.7315 64.5237 72.8426 64.1457 71.9865Z" fill="#615C59"/>
<path fill-rule="evenodd" clip-rule="evenodd" d="M49.1948 42.1044C49.6348 42.731 51.1435 49.2961 51.5863 50.81C52.525 54.0178 53.3628 56.2707 54.5833 59.0228C56.7394 63.8849 60.8134 69.5604 64.1471 71.9855C63.6053 70.6921 62.6292 69.3937 61.9524 68.1717C57.6556 60.4131 55.9274 53.5839 56.0297 44.3155C56.0723 40.4525 56.7811 36.3162 56.729 32.7028C55.5961 31.965 54.3896 30.6578 53.0554 29.5718C52.1634 28.8456 50.3874 26.7489 49.3094 26.5635L49.1948 42.1044Z" fill="#A9A9A9"/>
<path fill-rule="evenodd" clip-rule="evenodd" d="M23.8795 52.386C24.0718 55.6634 24.2074 58.9758 24.1698 62.3422C24.1328 65.6539 23.5614 69.1508 23.6145 72.2427C27.2622 68.7768 30.2566 33.8021 28.5173 26.4473L21.3722 33.4102L23.8795 52.386Z" fill="#A9A9A9"/>
<path fill-rule="evenodd" clip-rule="evenodd" d="M21.565 37.2399C20.901 44.8614 22.7734 51.9494 20.0566 61.8878C17.8711 69.8811 10.6621 75.4967 9.79211 78.0835C11.0027 80.0362 16.3871 84.31 18.753 85.5331C20.0317 85.127 19.5612 85.2717 19.8551 83.9986C20.1018 82.9304 20.3199 82.9917 20.6247 82.2773L22.0571 78.654L23.6155 72.2428C25.2312 58.96 23.8786 46.542 21.5146 34.4785L21.5653 37.2396L21.565 37.2399Z" fill="#615C59"/>
<path d="M104.61 28.9808C104.36 29.3202 104.056 29.606 103.699 29.8739C103.074 30.3205 102.199 30.7671 101.038 30.7671C98.8047 30.7671 97.0183 28.9808 97.0183 26.7479C97.0183 24.5149 98.8047 22.7286 101.038 22.7286C102.163 22.7286 103.02 23.1752 103.61 23.6218C103.949 23.8897 104.253 24.1755 104.521 24.5149L106.307 22.7286C105.932 22.2642 105.503 21.8533 104.985 21.4782C104.11 20.853 102.77 20.2278 101.038 20.2278C97.1791 20.2278 94.2495 23.1752 94.2495 26.7479C94.2495 30.3205 97.1791 33.2679 101.038 33.2679C102.824 33.2679 104.146 32.6427 105.057 32.0175C105.575 31.6424 106.021 31.2315 106.397 30.7671L104.61 28.9808ZM108.364 33H111.043V28.8914H113.544L115.777 33H118.724L116.134 28.3555C116.545 28.1769 116.902 27.9268 117.206 27.6053C117.76 27.0515 118.278 26.1226 118.278 24.6936C118.278 22.1927 116.581 20.4957 113.901 20.4957H108.364V33ZM111.043 26.3906V22.9966H113.812C114.812 22.9966 115.509 23.6932 115.509 24.6936C115.509 25.6939 114.812 26.3906 113.812 26.3906H111.043ZM120.959 33H130.426V30.4991H123.638V27.8197H128.818V25.4081H123.638V22.9966H130.248V20.4957H120.959V33ZM132.838 33H137.394C141.234 33 144.003 30.2312 144.003 26.7479C144.003 23.2645 141.234 20.4957 137.394 20.4957H132.838V33ZM135.518 30.4991V22.9966H137.394C139.626 22.9966 141.234 24.6043 141.234 26.7479C141.234 28.8914 139.626 30.4991 137.394 30.4991H135.518ZM146.41 33H149.09V20.4957H146.41V33ZM154.629 33H157.308V22.9966H160.881V20.4957H151.056V22.9966H154.629V33ZM175.61 28.9808C175.36 29.3202 175.056 29.606 174.699 29.8739C174.074 30.3205 173.198 30.7671 172.037 30.7671C169.804 30.7671 168.018 28.9808 168.018 26.7479C168.018 24.5149 169.804 22.7286 172.037 22.7286C173.162 22.7286 174.02 23.1752 174.609 23.6218C174.949 23.8897 175.252 24.1755 175.52 24.5149L177.307 22.7286C176.932 22.2642 176.503 21.8533 175.985 21.4782C175.11 20.853 173.77 20.2278 172.037 20.2278C168.179 20.2278 165.249 23.1752 165.249 26.7479C165.249 30.3205 168.179 33.2679 172.037 33.2679C173.823 33.2679 175.145 32.6427 176.056 32.0175C176.574 31.6424 177.021 31.2315 177.396 30.7671L175.61 28.9808ZM182.668 27.7303L184.15 23.6218H184.222L185.705 27.7303H182.668ZM177.845 33H180.703L181.775 30.1419H186.598L187.67 33H190.528L185.705 20.4957H182.668L177.845 33ZM192.22 33H194.899V28.8914H197.489C200.151 28.8914 201.955 27.123 201.955 24.6936C201.955 22.2642 200.151 20.4957 197.489 20.4957H192.22V33ZM194.899 26.3906V22.9966H197.4C198.472 22.9966 199.186 23.6932 199.186 24.6936C199.186 25.6939 198.472 26.3906 197.4 26.3906H194.899ZM204.361 33H207.041V20.4957H204.361V33ZM212.58 33H215.259V22.9966H218.832V20.4957H209.007V22.9966H212.58V33ZM223.035 27.7303L224.517 23.6218H224.589L226.071 27.7303H223.035ZM218.212 33H221.07L222.141 30.1419H226.965L228.036 33H230.895L226.071 20.4957H223.035L218.212 33ZM232.587 33H241.072V30.4991H235.266V20.4957H232.587V33Z" fill="#0291DE"/>
<path d="M93.8029 51.0872C94.1245 51.4623 94.5175 51.7838 94.9998 52.0696C95.8036 52.5698 97.0005 53.0521 98.626 53.0521C101.573 53.0521 103.36 51.2658 103.36 49.2115C103.36 44.8529 97.1077 45.7996 97.1077 43.6739C97.1077 42.9594 97.6257 42.4235 98.9833 42.4235C99.6978 42.4235 100.269 42.6914 100.68 42.9594C100.913 43.1201 101.109 43.2988 101.306 43.4953L103.092 41.7089C102.788 41.4053 102.449 41.1195 102.038 40.8694C101.341 40.4407 100.269 40.0119 98.894 40.0119C96.0359 40.0119 94.3388 41.7089 94.3388 43.6739C94.3388 48.0325 100.591 47.0858 100.591 49.2115C100.591 50.0154 99.9658 50.6406 98.5367 50.6406C97.59 50.6406 96.8576 50.319 96.3574 49.9796C96.0537 49.7831 95.8036 49.5509 95.5893 49.3008L93.8029 51.0872ZM105.503 52.7842H114.97V50.2833H108.182V47.6038H113.363V45.1923H108.182V42.7807H114.792V40.2799H105.503V52.7842ZM117.382 52.7842H120.062V48.6756H122.563L124.796 52.7842H127.743L125.153 48.1397C125.564 47.9611 125.921 47.711 126.225 47.3895C126.779 46.8357 127.297 45.9068 127.297 44.4778C127.297 41.9769 125.6 40.2799 122.92 40.2799H117.382V52.7842ZM120.062 46.1748V42.7807H122.831C123.831 42.7807 124.528 43.4774 124.528 44.4778C124.528 45.4781 123.831 46.1748 122.831 46.1748H120.062ZM132.933 52.7842H135.97L140.614 40.2799H137.756L134.487 49.4795H134.416L131.147 40.2799H128.289L132.933 52.7842ZM142.485 52.7842H145.165V40.2799H142.485V52.7842ZM157.938 48.7649C157.688 49.1043 157.385 49.3902 157.027 49.6581C156.402 50.1047 155.527 50.5513 154.366 50.5513C152.133 50.5513 150.346 48.7649 150.346 46.532C150.346 44.2991 152.133 42.5128 154.366 42.5128C155.491 42.5128 156.349 42.9594 156.938 43.406C157.277 43.6739 157.581 43.9597 157.849 44.2991L159.635 42.5128C159.26 42.0484 158.832 41.6375 158.314 41.2624C157.438 40.6372 156.098 40.0119 154.366 40.0119C150.507 40.0119 147.578 42.9594 147.578 46.532C147.578 50.1047 150.507 53.0521 154.366 53.0521C156.152 53.0521 157.474 52.4269 158.385 51.8017C158.903 51.4266 159.35 51.0157 159.725 50.5513L157.938 48.7649ZM161.692 52.7842H171.159V50.2833H164.371V47.6038H169.552V45.1923H164.371V42.7807H170.981V40.2799H161.692V52.7842ZM172.321 51.0872C172.643 51.4623 173.036 51.7838 173.518 52.0696C174.322 52.5698 175.519 53.0521 177.144 53.0521C180.092 53.0521 181.878 51.2658 181.878 49.2115C181.878 44.8529 175.626 45.7996 175.626 43.6739C175.626 42.9594 176.144 42.4235 177.501 42.4235C178.216 42.4235 178.788 42.6914 179.198 42.9594C179.431 43.1201 179.627 43.2988 179.824 43.4953L181.61 41.7089C181.306 41.4053 180.967 41.1195 180.556 40.8694C179.859 40.4407 178.788 40.0119 177.412 40.0119C174.554 40.0119 172.857 41.7089 172.857 43.6739C172.857 48.0325 179.109 47.0858 179.109 49.2115C179.109 50.0154 178.484 50.6406 177.055 50.6406C176.108 50.6406 175.376 50.319 174.876 49.9796C174.572 49.7831 174.322 49.5509 174.107 49.3008L172.321 51.0872Z" fill="#0291DE"/>
<path d="M96.3445 69.2637H102.536V67.4388H98.2997V60.1394H96.3445V69.2637ZM103.969 69.2637H105.924V60.1394H103.969V69.2637ZM108.272 69.2637H110.227V63.2677L113.16 66.9174L116.092 63.2677V69.2637H118.048V60.1394H116.288L113.16 64.0498L110.031 60.1394H108.272V69.2637ZM120.39 69.2637H122.345V60.1394H120.39V69.2637ZM126.387 69.2637H128.342V61.9643H130.949V60.1394H123.78V61.9643H126.387V69.2637ZM132.381 69.2637H139.289V67.4388H134.336V65.4836H138.116V63.724H134.336V61.9643H139.159V60.1394H132.381V69.2637ZM141.049 69.2637H144.373C147.175 69.2637 149.196 67.2433 149.196 64.7016C149.196 62.1598 147.175 60.1394 144.373 60.1394H141.049V69.2637ZM143.004 67.4388V61.9643H144.373C146.002 61.9643 147.175 63.1374 147.175 64.7016C147.175 66.2657 146.002 67.4388 144.373 67.4388H143.004Z" fill="black"/>
</svg>
